<?xml version="1.0" encoding="UTF-8"?>
<svg id="Capa_2" data-name="Capa 2" xmlns="http://www.w3.org/2000/svg" xmlns:xlink="http://www.w3.org/1999/xlink" viewBox="0 0 19.49 19.49">
  <defs>
    <style>
      .cls-1 {
        fill: url(#Degradado_sin_nombre_2);
      }
    </style>
    <linearGradient id="Degradado_sin_nombre_2" data-name="Degradado sin nombre 2" x1="0" y1="9.74" x2="19.49" y2="9.74" gradientUnits="userSpaceOnUse">
      <stop offset="0" stop-color="#5ccb5f"/>
      <stop offset=".19" stop-color="#3eaa47"/>
      <stop offset=".4" stop-color="#238b30"/>
      <stop offset=".61" stop-color="#0f7520"/>
      <stop offset=".82" stop-color="#046817"/>
      <stop offset="1" stop-color="#006414"/>
    </linearGradient>
  </defs>
  <g id="Web">
    <path class="cls-1" d="M.47,1.72c.31-.52.73-.94,1.25-1.25s1.1-.47,1.74-.47h12.58c.63,0,1.21.16,1.74.47.52.31.94.73,1.25,1.25.31.52.47,1.1.47,1.74v12.58c0,.63-.16,1.21-.47,1.74-.31.52-.73.94-1.25,1.25-.52.31-1.1.47-1.74.47H3.45c-.63,0-1.21-.16-1.74-.47s-.94-.73-1.25-1.25c-.31-.52-.47-1.1-.47-1.74V3.45c0-.63.16-1.21.47-1.74ZM16.03.31c.58,0,1.1.14,1.58.42.48.28.86.66,1.14,1.14.28.48.42,1,.42,1.58v12.58c0,.58-.14,1.1-.42,1.58-.28.48-.66.86-1.14,1.14-.48.28-1,.42-1.58.42H3.45c-.58,0-1.1-.14-1.58-.42-.48-.28-.86-.66-1.14-1.14-.28-.48-.42-1-.42-1.58V3.45c0-.58.14-1.1.42-1.58.28-.48.66-.86,1.14-1.14.48-.28,1-.42,1.58-.42h12.58ZM.63,16.03c0,.52.13.99.38,1.42.26.43.6.77,1.03,1.02.43.25.9.38,1.42.38h12.58c.52,0,1-.13,1.43-.38.43-.25.77-.59,1.02-1.02.25-.43.38-.9.38-1.42V3.45c0-.52-.13-.99-.38-1.42-.25-.43-.59-.77-1.02-1.02-.43-.25-.9-.38-1.43-.38H3.45c-.52,0-.99.13-1.42.38-.43.25-.77.59-1.03,1.02-.26.43-.38.9-.38,1.42v12.58ZM16.03,1.26c.41,0,.78.1,1.11.3.33.2.6.46.79.8.2.33.3.7.3,1.1v12.58c0,.4-.1.77-.3,1.1-.2.33-.46.6-.79.8-.33.2-.7.3-1.11.3H3.45c-.4,0-.77-.1-1.1-.3-.33-.2-.6-.46-.8-.8-.2-.33-.3-.7-.3-1.1V3.45c0-.4.1-.77.3-1.1.2-.33.46-.6.8-.8.33-.2.7-.3,1.1-.3h12.58ZM1.57,16.03c0,.52.18.96.55,1.33s.81.55,1.33.55h12.58c.52,0,.97-.18,1.33-.55s.55-.81.55-1.33V3.45c0-.52-.18-.96-.55-1.33s-.81-.55-1.33-.55H3.45c-.52,0-.96.19-1.33.55s-.55.81-.55,1.33v12.58ZM2.35,2.35c-.31.31-.46.68-.46,1.11v12.58c0,.43.15.8.46,1.11.31.31.68.46,1.11.46h12.58c.44,0,.81-.15,1.11-.46.31-.31.46-.68.46-1.11V3.45c0-.43-.15-.8-.46-1.11-.31-.31-.68-.46-1.11-.46H3.45c-.43,0-.8.15-1.11.46ZM3.34,9.5c0-.26.09-.48.27-.67.19-.19.41-.28.67-.28s.48.09.66.28l3.17,3.17,6.45-6.45c.18-.19.4-.28.66-.28s.49.09.67.28c.18.19.27.41.27.67s-.09.48-.27.67l-7.12,7.11c-.18.19-.4.28-.66.28s-.49-.09-.67-.28l-.45-.45-.22-.22-3.17-3.17c-.18-.19-.27-.41-.27-.67ZM7.23,13.34l-3.39-3.4c-.12-.12-.18-.27-.18-.44s.06-.32.18-.44c.12-.13.27-.19.45-.19s.32.06.44.19l3.39,3.39,6.66-6.67c.12-.12.27-.18.45-.18s.32.06.44.18c.12.13.18.28.18.45s-.06.32-.18.44l-7.11,7.12c-.12.12-.27.18-.45.18s-.32-.06-.44-.18l-.45-.45ZM8.12,12.9l-.23-.23-3.39-3.39c-.06-.06-.13-.1-.22-.1s-.16.03-.23.1c-.06.06-.09.14-.09.22s.03.16.09.22l3.39,3.39.23.23.22.22c.06.06.14.1.23.1s.16-.03.22-.1l7.12-7.11c.06-.06.09-.14.09-.23s-.03-.16-.09-.22c-.06-.06-.14-.1-.23-.1s-.16.03-.22.1l-6.67,6.66-.22.23Z"/>
  </g>
</svg>