<?xml version="1.0" encoding="UTF-8"?>
<svg id="Layer_2" data-name="Layer 2" xmlns="http://www.w3.org/2000/svg" viewBox="0 0 791.5 124.25">
  <defs>
    <style>
      .cls-1 {
        fill: #127704;
      }

      .cls-2 {
        fill: #fff;
      }

      .cls-3 {
        fill: none;
      }

      .cls-4 {
        fill: #c90f2e;
      }
    </style>
  </defs>
  <g id="Capa_3" data-name="Capa 3">
    <g>
      <path class="cls-1" d="M58.99,124.25l-23.13-45.82h-3.47v45.82H0V0h51.06C60.42,0,68.35,1.74,74.85,5.2c6.5,3.47,11.4,8.23,14.71,14.28,3.3,6.05,4.96,12.84,4.96,20.36,0,8.46-2.18,15.89-6.53,22.29-4.35,6.4-10.71,10.96-19.08,13.66l26.27,48.47h-36.19ZM32.39,54.81h16.03c4.4,0,7.71-1.12,9.91-3.35,2.2-2.23,3.3-5.47,3.3-9.7,0-3.99-1.13-7.14-3.39-9.43-2.26-2.29-5.54-3.44-9.83-3.44h-16.03v25.91Z"/>
      <path class="cls-1" d="M182.91,103.98h-41.31l-6.28,20.27h-34.04L143.75,0h37.34l42.3,124.25h-34.2l-6.28-20.27ZM174.82,77.55l-12.56-40.18-12.39,40.18h24.95Z"/>
      <path class="cls-1" d="M316.42,61.95c-3.25,6.17-8.15,11.1-14.71,14.81-6.55,3.7-14.57,5.55-24.04,5.55h-16.03v41.94h-32.39V0h48.41c9.36,0,17.32,1.76,23.88,5.29,6.55,3.53,11.48,8.4,14.79,14.63,3.3,6.23,4.96,13.39,4.96,21.5,0,7.52-1.63,14.36-4.87,20.53ZM288.25,41.42c0-9.05-4.57-13.57-13.71-13.57h-12.89v26.96h12.89c9.14,0,13.71-4.46,13.71-13.39Z"/>
      <path class="cls-1" d="M362.02,0v124.25h-32.39V0h32.39Z"/>
      <g>
        <path class="cls-3" d="M417.09,29.96h-11.24v63.8h11.24c9.47,0,16.91-2.76,22.31-8.29,5.4-5.52,8.1-13.33,8.1-23.44s-2.7-18.12-8.1-23.7c-5.4-5.58-12.83-8.37-22.31-8.37Z"/>
        <path class="cls-1" d="M472.94,29.78c-1.91-3.58-4.1-6.87-6.61-9.84-4.07-4.83-8.95-8.85-14.62-12.1-9.2-5.23-19.92-7.84-32.13-7.84h-46.12v124.25h46.12c12.1,0,22.76-2.66,31.97-8.03,5.74-3.32,10.66-7.46,14.78-12.38,2.47-2.94,4.64-6.19,6.52-9.72,5.01-9.39,7.53-20.1,7.53-32.09s-2.5-22.83-7.44-32.25ZM439.4,85.48c-5.39,5.53-12.83,8.29-22.32,8.29h-11.23V29.97h11.23c9.49,0,16.93,2.78,22.32,8.36,5.39,5.58,8.1,13.49,8.1,23.71s-2.71,17.94-8.1,23.45Z"/>
        <path class="cls-4" d="M484.44,0v19.93c2.51,2.98,4.72,6.26,6.61,9.85,4.96,9.4,7.43,20.15,7.43,32.25s-2.51,22.68-7.52,32.08c-1.88,3.53-4.06,6.77-6.53,9.73v20.41h307.05V0h-307.05Z"/>
      </g>
      <g>
        <path class="cls-2" d="M616.22,18.51v86.71h-22.6v-47.84l-15.34,47.84h-18.91l-15.45-48.21v48.21h-22.6V18.51h27.33l20.41,56.33,19.95-56.33h27.21Z"/>
        <path class="cls-2" d="M651.74,37.82v14.14h25.94v18.32h-25.94v15.62h29.4v19.31h-52V18.51h52v19.31h-29.4Z"/>
        <path class="cls-2" d="M743.18,105.22l-15.8-24.47-13.49,24.47h-25.71l26.41-44.4-27.33-42.31h26.64l15.34,23.86,13.15-23.86h25.71l-26.06,43.66,27.79,43.05h-26.64Z"/>
      </g>
    </g>
  </g>
</svg>