<svg width="320" height="50" viewBox="0 0 320 50" fill="none" xmlns="http://www.w3.org/2000/svg">
<g clip-path="url(#clip0_20_40)">
<path d="M23.8494 50L14.498 31.5614H13.0951V50H0V0H20.6433C24.4275 0 27.6336 0.700201 30.2615 2.09256C32.8895 3.48893 34.8705 5.40443 36.2087 7.83903C37.5429 10.2736 38.214 13.006 38.214 16.0322C38.214 19.4366 37.3327 22.4266 35.574 25.002C33.8153 27.5775 31.244 29.4125 27.86 30.499L38.4809 50.004H23.8494V50ZM13.0951 22.0563H19.576C21.3549 22.0563 22.6931 21.6056 23.5826 20.7082C24.472 19.8109 24.9167 18.507 24.9167 16.8048C24.9167 15.1992 24.4599 13.9316 23.5462 13.0101C22.6325 12.0885 21.3064 11.6258 19.572 11.6258H13.0911V22.0523L13.0951 22.0563Z" fill="#127704"/>
<path d="M73.9497 41.8431H57.2483L54.7093 50H40.9471L58.1175 0H73.2139L90.3156 50H76.4887L73.9497 41.8431ZM70.679 31.2072L65.601 15.0382L60.5918 31.2072H70.679Z" fill="#127704"/>
<path d="M127.927 24.9296C126.613 27.4125 124.632 29.3964 121.98 30.8893C119.332 32.3783 116.089 33.1227 112.261 33.1227H105.78V50H92.6848V0H112.257C116.041 0 119.259 0.70825 121.911 2.12877C124.559 3.5493 126.553 5.50905 127.891 8.0161C129.225 10.5231 129.896 13.4044 129.896 16.668C129.896 19.6942 129.237 22.4467 127.927 24.9296ZM116.538 16.668C116.538 13.0262 114.691 11.2072 110.995 11.2072H105.784V22.0563H110.995C114.691 22.0563 116.538 20.2616 116.538 16.668Z" fill="#127704"/>
<path d="M146.363 0V50H133.268V0H146.363Z" fill="#127704"/>
<path d="M191.208 11.9839C190.435 10.5433 189.55 9.21932 188.535 8.02415C186.89 6.08048 184.917 4.46278 182.624 3.15493C178.905 1.0503 174.571 0 169.634 0H150.988V50H169.634C174.526 50 178.836 48.9296 182.56 46.7686C184.88 45.4326 186.869 43.7666 188.535 41.7867C189.534 40.6036 190.411 39.2958 191.171 37.8753C193.197 34.0966 194.216 29.7867 194.216 24.9618C194.216 20.1368 193.205 15.7746 191.208 11.9839ZM177.648 34.3984C175.468 36.6237 172.46 37.7344 168.624 37.7344H164.083V12.0604H168.624C172.46 12.0604 175.468 13.1791 177.648 15.4245C179.827 17.67 180.922 20.8531 180.922 24.9658C180.922 29.0785 179.827 32.1851 177.648 34.4024V34.3984Z" fill="#127704"/>
<path d="M195.857 0V8.02012C196.872 9.21932 197.765 10.5392 198.529 11.9839C200.535 15.7666 201.533 20.0926 201.533 24.9618C201.533 29.831 200.519 34.0885 198.493 37.8712C197.733 39.2918 196.852 40.5956 195.853 41.7867V50H319.992V0H195.853H195.857Z" fill="#C90F2E"/>
<path d="M249.135 7.44873V42.3421H239.998V23.0906L233.796 42.3421H226.151L219.904 22.9417V42.3421H210.767V7.44873H221.817L230.068 30.1167L238.134 7.44873H249.135Z" fill="white"/>
<path d="M263.496 15.2194V20.9095H273.983V28.2817H263.496V34.5674H275.382V42.3381H254.359V7.44873H275.382V15.2194H263.496Z" fill="white"/>
<path d="M300.464 42.3421L294.077 32.495L288.623 42.3421H278.228L288.906 24.4749L277.856 7.44873H288.627L294.829 17.0503L300.145 7.44873H310.539L300.004 25.0181L311.239 42.3421H300.468H300.464Z" fill="white"/>
</g>
<defs>
<clipPath id="clip0_20_40">
<rect width="320" height="50" fill="white"/>
</clipPath>
</defs>
</svg>
