<?xml version="1.0" encoding="UTF-8"?>
<svg id="Capa_2" data-name="Capa 2" xmlns="http://www.w3.org/2000/svg" viewBox="0 0 125.53 101">
  <defs>
    <style>
      .cls-1 {
        fill: #fff;
      }
    </style>
  </defs>
  <g id="Web">
    <g>
      <path class="cls-1" d="M72.24,69.98c.57-.23,1.14-.43,1.69-.71,6.94-3.52,21.38-14.2,28.24-14.71,9.07-.67,12.57,8.95,5.88,14.47-11.99,6.49-23.62,15.76-35.64,21.96-2.28,1.18-4.53,1.85-7.11,1.99-9.92-1.43-19.43-5.08-29.22-7.21l-2.69,1.76c1.36,2.5,3.44,5.33,1.57,8.2-.75,1.15-5.59,3.98-7.02,4.61-3.25,1.44-5.25.47-7.1-2.34-5.87-8.93-10.55-19.64-16.14-28.83-.51-1.65.11-3.71,1.33-4.89.79-.76,6.36-3.86,7.45-4.17,3.31-.94,5.11,1.18,6.58,3.78,5.61-2.76,11.04-7.01,16.71-9.54,8.98-4,15.28.7,23.9,3.32,4.5,1.37,10.16,1.23,11.88,6.56.71,2.2.42,3.63-.32,5.75ZM42.88,56.66c-2.25.22-4.3,1.3-6.26,2.32-4.94,2.56-9.76,5.86-14.64,8.59l9.46,16.25c1.61-.74,3.15-2.41,5.02-2.2,8.09,1.89,16.02,4.6,24.1,6.48,6.29,1.46,7.36.74,12.67-2.35,11.15-6.48,21.85-13.79,32.95-20.36,1.72-1.29,1.61-5.11-.25-6.24-2.54-1.54-6.69.24-9.1,1.43-7.16,3.55-14.24,9.14-21.39,12.47-4.38,2.04-7.76,1.51-12.3.59-3.11-.63-9.65-2.09-12.38-3.29-2.16-.94-1.45-4.01.87-3.93,3.98.5,10.05,3.56,13.87,3.45,3.62-.1,4.59-4.37,1.67-6.34-2.89-.91-5.87-1.48-8.77-2.34-4-1.19-11.86-4.9-15.53-4.54ZM15.59,64.24l-.62-.28c-.42-.03-6.07,3.12-6.27,3.5-.1.19-.14.36-.08.57l15.91,28.32.72.57,6.28-3.22-.02-1.04-15.92-28.42Z"/>
      <path class="cls-1" d="M.83,13.47L24.39,0c.6-.04,2.17.89,2.8,1.22,5.82,3.04,12.28,6.93,17.94,10.36,1.13.68,3.4,1.65,3.6,2.96l-.12,27.14c-.29.38-.66.69-1.05.97-6.35,4.61-15.24,7.98-21.8,12.56-1.23.86-2.34-.03-3.47-.6-7.13-3.59-14-8.54-21.14-12.21-.68-.39-.97-1.08-.94-1.84.58-8.14-.73-17.26,0-25.29.06-.69.19-1.24.6-1.8ZM6.56,14.65c-.44.6,2.92,1.94,3.3,2.4l.49.02L28.28,6.69c-.9-.58-3.08-2.28-4.04-2.04L6.56,14.65ZM34.6,10.11c-.94-.19-1.68-1.37-2.7-.83l-17.5,10.3,2.28,1.28,17.5-10.04.42-.71ZM42.68,15.15c-.88-.81-3.14-2.52-4.3-2.17l-17.27,9.98-.16.52,3.81,1.91,17.91-10.25ZM4.28,18.44v21.22l18.19,10.36v-21.22l-3.79-2.02v7.2c0,.75-1.8,1.79-2.59,1.34l-7.52-4.36c-1.16-1.49-.16-8.17-.49-10.32l-3.8-2.19ZM44.7,18.69l-18.19,10.48v20.84l18.19-10.48v-20.84ZM14.64,24.25c-.99-.06-1.58-1.07-2.53-1.01v5.31l2.53,1.26v-5.56Z"/>
      <path class="cls-1" d="M110.14,28.54c6.97,2.28,12.67,8.53,14.63,15.56.58,2.06,1.91,6.1-1.36,6.18l-43.53-.2c-2.07-.82-.62-5.36-.07-7.02,2.2-6.65,7.72-12.36,14.41-14.52-8.31-6.8-5.77-20.24,4.85-22.82,13.65-3.31,21.61,14.02,11.07,22.82ZM95.83,11.96c-7.71,7.74,3.1,19.95,11.65,13.29,9.99-7.78-2.96-22.02-11.65-13.29ZM121,46.23c-.99-5.95-5.64-11.2-11.12-13.51-11.43-4.81-23.85,1.66-26.77,13.51h37.89Z"/>
      <path class="cls-1" d="M60.87,38.15c1.92,1.22,1.69,4.57-.86,4.29-.55-.06-7.45-4.68-7.75-5.16-.75-1.23-.15-2.23.77-3.05.61-.54,6.02-4.23,6.5-4.36,1.89-.52,3.19,1.22,2.46,2.96-.25.59-1.15.76-1.38,1.27h17.56c.59,0,1.4,1.23,1.4,1.89,0,.72-1.05,2.15-1.66,2.15h-17.05Z"/>
      <path class="cls-1" d="M70.73,21.47h-17.56c-1.1,0-1.71-2.45-.63-3.41.12-.11,1.31-.64,1.38-.64h16.55c-2.03-1.26-1.35-4.59,1.02-4.19.65.11,6.54,4.06,7.18,4.7,1.17,1.17,1.27,2.11,0,3.28-.57.53-6.38,4.45-6.83,4.54-1.17.22-2.31-.19-2.59-1.43-.36-1.6.75-1.73,1.47-2.85Z"/>
      <path class="cls-1" d="M13.31,66.99c1.49-.27,3.02,1.62,1.84,3.12-2.35,2.98-5.26-2.5-1.84-3.12Z"/>
    </g>
  </g>
</svg>