<?xml version="1.0" encoding="UTF-8"?>
<svg id="Capa_2" data-name="Capa 2" xmlns="http://www.w3.org/2000/svg" viewBox="0 0 81.92 95">
  <defs>
    <style>
      .cls-1 {
        fill: #fff;
      }
    </style>
  </defs>
  <g id="Web">
    <g>
      <path class="cls-1" d="M70.04,19.17h7.17c1.82,0,4.71,2.94,4.68,4.88v46.35c.3,2.06-2.81,5.26-4.68,5.26h-24.56c.19,2.55,1.47,4.87,2.71,7.04,4.6-.14,8.92.19,12.1,3.87,1.86,2.16,4.79,8.37-.19,8.44H15.09c-4.76-.03-2.28-5.82-.55-8.03,3.11-3.96,7.59-4.38,12.31-4.32.84-.41,3.03-5.76,2.87-6.99H5.16c-.3,0-1.93-.77-2.26-.99-1.98-1.34-2.48-3.34-2.62-5.61-.88-14.22.68-29.35.01-43.66-.27-2.41,2.4-6.23,4.87-6.23h7.17V2.79C12.33,1.96,14.44-.07,15.48.01h51.04c1.32-.17,3.53,1.75,3.53,2.97v16.18ZM66.98,12.27V3.56s-.44-.48-.48-.48H15.67l-.29.29v8.9h51.6ZM66.98,15.34H15.38v45.67s.29.34.39.38h50.83c.09-.04.39-.35.39-.38V15.34ZM12.33,22.23h-6.78c-1.22,0-2.33,2.22-2.2,3.34v43.67c.15,1.83.77,3.18,2.77,3.35h70.15c1.03-.02,1.92-.76,2.39-1.62l.03-47.16c-.19-.55-1.32-1.59-1.86-1.59h-6.78v39.35c0,1.16-2.08,3.04-3.34,2.97l-51.66-.13c-1.02-.11-2.71-1.9-2.71-2.84V22.23ZM30.48,82.74h21.4c-1.21-2.17-2.03-4.52-2.46-6.97l-16.34-.09c-.4.14-.46,1.61-.6,2.08-.49,1.73-1.15,3.41-2.01,4.98ZM66.79,91.93c-.64-3.42-3.82-5.76-7.19-6.1-11.87.54-24.51-.8-36.3-.03-3.68.24-6.96,2.4-7.73,6.14h51.22Z"/>
      <path class="cls-1" d="M37.55,48.65c-.1,1.79.4,1.4,1.41,1.93,1.23.66,1.93,1.41,2.54,2.67l8.92-.04c1.47-2.73,4.57-4.11,7.29-2.08,5.36,4-1.82,11.73-6.22,6.8-.43-.48-.81-1.55-1.23-1.64h-8.76c-2.44,6.24-11.61,2.11-8.43-3.81.42-.78,1.62-1.46,1.62-2.01l-5.65-29.4c-.08-.2-.19-.47-.37-.59-.76-.55-5.7.08-7.08-.18s-1.56-2.59.08-2.98c1.16-.27,5.09-.19,6.42-.09,5.35.4,4.15,7.18,5.46,10.9l27.32.11c.88.36,1.07,1.21.93,2.1-1.43,4.75-1.77,10.44-3.28,15.09-.35,1.09-.99,2.2-2.03,2.75-.18.09-1.15.47-1.25.47h-17.68ZM38.32,36.78l-.8-5.23-.25-.32h-3.15l1.24,5.55h2.96ZM44.81,31.23h-4.2l.76,5.55h3.44v-5.55ZM52.27,31.23h-4.4v5.55h3.63l.76-5.55ZM58.38,31.23h-3.06l-.76,5.55h2.68l1.15-5.55ZM38.89,39.85h-3.06l1.14,5.66,2.69.09-.77-5.75ZM44.81,39.85h-2.87l.98,5.72,1.89.02v-5.74ZM49.96,45.58l.92-5.46c-.09-.5-2.2-.23-2.69-.25-.25.06-.27.23-.31.45-.08.45-.08,4.64.03,4.95.4.59,1.43.23,2.07.3ZM56.47,39.85l-2.47.02-.97,5.72c.89-.06,1.84.32,2.37-.59.25-.43,1.25-4.97,1.07-5.16ZM36.74,53.28c-1.6.33-1.63,2.91.15,3.04,2.69.19,2.02-3.49-.15-3.04ZM56.04,53.69c-1.68-1.68-3.84,1.39-1.96,2.44,1.78,1,3.17-1.24,1.96-2.44Z"/>
      <path class="cls-1" d="M18.77,6.19c.58-.13,3.75-.13,4.27.04,1.31.43,1.1,2.62-.34,2.94-.59.13-3.33.13-3.89-.05-1.38-.42-1.57-2.6-.04-2.94Z"/>
      <path class="cls-1" d="M28.32,6.19c.59-.13,3.74-.13,4.27.04.99.32,1.15,1.95.28,2.6-.66.49-3.72.53-4.51.29-1.38-.42-1.57-2.6-.04-2.94Z"/>
      <path class="cls-1" d="M42.65,6.58c.52.61.43,1.75-.22,2.25s-3.47.49-4.36.33c-1.59-.29-1.74-2.63-.19-2.98.8-.18,4.27-.2,4.77.4Z"/>
    </g>
  </g>
</svg>