<?xml version="1.0" encoding="UTF-8"?>
<svg id="Capa_2" data-name="Capa 2" xmlns="http://www.w3.org/2000/svg" viewBox="0 0 81.87 98">
  <defs>
    <style>
      .cls-1 {
        fill: #fff;
      }
    </style>
  </defs>
  <g id="Web">
    <g>
      <path class="cls-1" d="M66.62,98H15.16C-.84,95.79-1.33,82.15,1.06,69.07c1.95-10.71,7.77-21.96,20.31-21.78,2.54.04,6.59,3.57,8.97,4.82,7,3.69,14.7,3.53,21.62-.26,2.34-1.28,6.02-4.56,8.64-4.56,17.39,0,22.16,21.95,21.15,35.69-.61,8.23-6.93,14.33-15.11,15.02ZM20.86,53.08c-9.41.37-12.89,9.59-14.25,17.53-.67,3.92-1.38,10.78-.31,14.53,1.28,4.49,5.44,6.82,9.9,7.13h49.38c10.46-.96,10.98-8.66,10.23-17.32s-4.03-21.6-14.99-21.85c-3.33,1.86-6.17,4.11-9.78,5.5-10.89,4.18-20.77,1.26-29.77-5.46l-.4-.06Z"/>
      <path class="cls-1" d="M56.99,40.34c-14.36,14.36-39.17,4.87-40.31-15.33C15.48,3.81,40.95-8.17,56.49,6.44c9.66,9.08,9.89,24.51.5,33.9ZM38.46,5.83c-12.43,1.11-19.94,15.1-14.03,26.16s21.14,12.83,29.38,3.35c10.59-12.2.76-30.95-15.35-29.51Z"/>
    </g>
  </g>
</svg>