<?xml version="1.0" encoding="UTF-8"?>
<svg id="Layer_2" data-name="Layer 2" xmlns="http://www.w3.org/2000/svg" xmlns:xlink="http://www.w3.org/1999/xlink" viewBox="0 0 340.97 341.01">
  <defs>
    <style>
      .cls-1 {
        fill: #fff;
      }

      .cls-2 {
        fill: none;
      }

      .cls-3 {
        clip-path: url(#clippath);
      }
    </style>
    <clipPath id="clippath">
      <rect class="cls-2" x="0" width="340.95" height="341.01"/>
    </clipPath>
  </defs>
  <g id="Capa_3" data-name="Capa 3">
    <g id="Grupo_47" data-name="Grupo 47">
      <g class="cls-3">
        <g id="Grupo_40" data-name="Grupo 40">
          <path id="Trazado_69" data-name="Trazado 69" class="cls-1" d="M87.25,0c3.59,3.19,13.97,11.23,15.62,15.34,1.66,3.41.23,7.52-3.18,9.17-.72.35-1.49.57-2.28.65-5.48.51-10.51-8.8-12.4-8.47l-9.03,9.51,56.14,55.66,9.03-9.03c.28-1.6-8.17-7.03-8.6-11.29-.34-3.71,2.4-7,6.11-7.33.98-.09,1.97.04,2.9.37,10.33,7.55,18.56,17.94,27.93,26.72l1.68.33L253.75,0h4c1.07.84,2.19,1.61,3.35,2.31,6.65,5.77,12.88,12.01,18.63,18.67,3.55,4.82,2.09,7.24-1.31,11.34-17.05,20.5-41.52,38.93-59.33,59.22-1.19,9.7-11.5,14.84-17.27,22.02l18.95,19.02c1.55,1.15,3.47.34,5.21.79,3.16.8,41.84,40.12,46.46,45.45,11.11,12.8,9.31,22.56,14.98,36.97,9.38,23.83,34.42,39.55,50.4,58.82,4.48,7.26,4.17,16.5-.8,23.44-9.74,13.26-28.88,26.43-39.74,39.52-9.54,6.31-22.38,3.69-28.7-5.84-.9-1.36-1.63-2.81-2.19-4.34l-16.64-56.97c-10.3,7.67-23.96,6.73-31.94-3.68-3.4-4.42-11.96-32.21-12.06-37.95-.03-1.75.97-3.88.63-5.17-.86-3.23-13.23-10.98-15.42-17.93-3.85-12.2,4.61-17.86,12.18-25.51-4.66-5.11-10.52-8.94-12.95-15.68l-19.45-19.23c-.81-.15-1.1.55-1.58.93-6.5,5.69-12.62,11.81-18.31,18.31-1.29,1.8-1.6,3.79-2.97,5.68-1.26,1.75-9.97,9.29-9.97,9.99,7.58,7.65,16.03,13.31,12.18,25.51-2.24,7.1-14.4,14.4-15.41,17.93-.49,1.71.63,3.43.61,5.18-.03,4.78-7.58,30.05-9.92,34.75-5.9,10.99-19.59,15.11-30.57,9.21-1.25-.67-2.43-1.46-3.53-2.35l-18.36,60.57c-5.93,9.8-18.68,12.94-28.48,7.01-.37-.22-.72-.45-1.08-.7-13.93-12.24-27.07-25.34-39.34-39.24-1.67-2.83-3.01-5.85-4-8.99v-6.66c.98-3.14,2.33-6.16,4-8.99,11.9-16.18,32.97-28.67,44.24-47.01,9.4-15.29,8.09-32.99,19.05-46.22,4.39-5.31,44.52-45.99,47.76-46.82,1.73-.44,3.66.37,5.21-.79l18.95-19.02c-5.76-7.17-16.07-12.31-17.27-22.02-17.81-20.29-42.29-38.72-59.33-59.22-3.41-4.1-4.86-6.51-1.31-11.34,5.74-6.66,11.96-12.9,18.59-18.67,1.17-.7,2.29-1.47,3.37-2.31h4ZM255.51,16.7l-55.41,55.24c-.45.5-.27.81,0,1.32s7.84,8.1,8.37,8.37l56.31-54.99c.63-.78.07-1.09-.33-1.68-2.7-3.04-5.69-5.81-8.94-8.26M150.85,81.93l-11.68,12.31.33.99,60.3,58.99c.69-.35,10.68-10.34,11.04-11.04.27-.51.45-.82,0-1.32l-59.98-59.94ZM190.15,81.93l-9.61,10.22,12.18,11.68,9.11-9.61-11.68-12.3ZM148.85,123.22l-18.95,19.06c-.21,1.19,10.14,10.48,11.68,12.18l19.54-18.95-12.28-12.3ZM117.55,149.2l-34.64,35.29,19.89,11.21,29.77-29.51.33-1.68-15.35-15.31ZM223.45,149.2l-15.37,15.31.33,1.68,29.77,29.51,19.89-11.21-34.63-35.29ZM111.89,206.46c5.59.18,11,2.02,15.56,5.27,3.71-3.18,7.11-6.72,10.14-10.56.89-3.24-6.67-9.41-9.29-11.3l-16.41,16.6ZM229.11,206.46l-16.42-16.6c-2.62,1.89-10.18,8.06-9.29,11.3,3.03,3.84,6.42,7.38,10.14,10.56,4.55-3.25,9.97-5.08,15.56-5.27M95.82,207.21c-6.77-2.58-13.68-8.84-20.09-11.55-.73-.44-1.6-.62-2.44-.5-4.28,18.76-9.5,35.23-22.34,49.94-10.25,11.75-26.21,23.42-35.32,35.27-2.95,2.68-3.17,7.25-.48,10.21.15.17.31.33.48.48,10.62,12.22,22.08,23.68,34.3,34.3,4.52,3.47,9.28,3.22,11.86-2.16l34.03-115.98ZM267.7,195.17c-.85-.12-1.71.05-2.44.5-6.41,2.72-13.32,8.97-20.09,11.55l34.04,115.98c2.58,5.41,7.38,5.61,11.86,2.16,12.22-10.62,23.68-22.08,34.3-34.3,2.95-2.68,3.17-7.25.48-10.21-.15-.17-.31-.33-.48-.48-9-11.68-24.8-23.37-35-34.93-13.06-14.79-18.39-31.29-22.66-50.28M112.41,219.92c-2.89.29-5.45,1.97-6.89,4.49-3.44,8.8-6.19,17.85-8.21,27.08-1.13,11.15,11.54,14.36,16.05,6.06,3.38-9.22,6.22-18.63,8.5-28.18.08-5.13-4.01-9.36-9.14-9.44-.1,0-.21,0-.31,0M226.95,219.92c-4.77.84-8.1,5.18-7.69,10.01,2.22,9.37,5.03,18.6,8.4,27.62,4.56,8.4,17.51,5.1,15.95-6.63-2.11-9.18-4.91-18.19-8.37-26.95-1.85-2.73-5-4.27-8.29-4.06"/>
          <path id="Trazado_70" data-name="Trazado 70" class="cls-1" d="M118.21,32.98c3.63.16,6.45,3.24,6.28,6.87s-3.24,6.45-6.87,6.28c-.46-.02-.92-.09-1.37-.21-6.82-1.11-6.45-12.96,1.96-12.95"/>
        </g>
      </g>
    </g>
  </g>
</svg>