<?xml version="1.0" encoding="UTF-8"?>
<svg id="Layer_2" data-name="Layer 2" xmlns="http://www.w3.org/2000/svg" xmlns:xlink="http://www.w3.org/1999/xlink" viewBox="0 0 268.43 290.24">
  <defs>
    <style>
      .cls-1 {
        fill: #fff;
      }

      .cls-2 {
        fill: none;
      }

      .cls-3 {
        clip-path: url(#clippath);
      }
    </style>
    <clipPath id="clippath">
      <rect class="cls-2" width="268.43" height="290.24"/>
    </clipPath>
  </defs>
  <g id="Capa_3" data-name="Capa 3">
    <g id="Grupo_86" data-name="Grupo 86">
      <g class="cls-3">
        <g id="Grupo_85" data-name="Grupo 85">
          <path id="Trazado_152" data-name="Trazado 152" class="cls-1" d="M215.16,90.1l-26.6,13.26.02,84.1,26.58,12.72v-21.69c.45-1.22,1-2.41,1.64-3.54,2.16-2.01,5.54-1.88,7.55.28.53.57.92,1.24,1.16,1.98-1,10.57,3.42,27.47-2.94,36.53l-76.69,71.61c-4.65,4.73-11.72,6.14-17.83,3.56-16.42-12.42-30.38-27.97-45.98-41.45-1.99-2.11-1.89-5.43.22-7.41,2.02-1.91,5.18-1.91,7.2,0l39.54,36.54v-37.89l-45-41.58-26.87,13.1,17.39,16.27c2.81,6-1.96,10.23-7.66,7.01-6.48-8.15-23.05-16.89-24.02-27.79v-121.15c.49-4.11,2.45-7.9,5.51-10.69C72.32,49.42,100.77,27.25,125.21,3.06c7.58-4.93,13.99-3.62,20.68,1.88,25.11,20.67,47.84,47.18,73.17,68,3.57,2.91,5.89,7.07,6.49,11.64l-.07,74.46c-.95,6.02-10.32,4.42-10.32-1.26v-67.67ZM129.04,13.69L57.17,80.06l27.2,12.97,44.67-41.46V13.69ZM139.4,51.89c.75.05,1.45.38,1.96.93,14.01,13.65,28.71,26.55,42.71,40.21l27.2-12.97L139.4,13.69v38.21ZM133.98,61.01l-43.67,40.56-.17,85.39.95,2.93,43.36,39.4,43.67-40.56-.2-87.6-43.93-40.12ZM53.27,90.1v110.08l26.6-13.26-.03-84.08-26.57-12.74ZM139.4,276.6l71.87-66.37-27.37-12.54c-14.16,13.29-28.64,26.21-42.55,39.78-.76.74-1.96.82-1.96.93v38.19Z"/>
          <path id="Trazado_153" data-name="Trazado 153" class="cls-1" d="M27.19,11.22c7.47-1.65,9.47,11.75,13.49,16.03,3.9,4.16,18.9,6.32,16.2,14.32-1.15,3.41-13.12,7.21-16.17,10.39-2.84,2.97-6.74,14.3-9.6,15.65-7.85,3.69-10.67-11.55-14.45-15.68-4.01-4.38-19.65-6.67-16.15-14.92,1.42-3.34,13.54-6.95,16.14-9.76,3.02-3.26,5.82-14.99,10.54-16.03M29.3,27.29l-1.33.39c-1.63,5.53-6.03,9.81-11.61,11.27,1.62,2.76,5.19,2.87,7.47,5.15,1.92,2.28,3.35,4.93,4.19,7.79,2.89-5.46,7.42-9.87,12.95-12.63-5.89-2.37-10.1-5.49-11.66-11.97"/>
          <path id="Trazado_154" data-name="Trazado 154" class="cls-1" d="M212.79,247.04c2.87-2.98,11.55-5.31,14.7-8.29,3.6-3.39,6.7-16.87,12.54-16.54,5.91.34,8.42,12.54,11.74,16.15,3.99,4.34,19.66,6.61,16.14,14.91-1.23,2.9-12.49,6.79-15.55,9.7-4.56,4.34-6.86,19.26-15.03,15.73-3.37-1.47-6.82-13.17-9.9-15.99-3.7-3.38-22.1-7.92-14.64-15.67M252.07,250.06c-6.49-1.55-9.6-5.78-11.98-11.66-1.89,2.18-2.84,5.41-4.83,7.47-2.23,2.32-5.73,3.04-7.8,5.47,2.86.84,5.51,2.27,7.79,4.19,2.27,2.28,2.39,5.85,5.15,7.47.89-2.68,2.2-5.19,3.88-7.46,2.21-1.52,4.54-2.87,6.95-4.04.57-.39,1.2.11.84-1.43"/>
          <path id="Trazado_155" data-name="Trazado 155" class="cls-1" d="M138.57,105.11c2.84-.56,5.6,1.28,6.16,4.13.24,1.19.05,2.43-.52,3.5l-25.26,42.09c-1.84,2.18-5.09,2.46-7.27.62-1.61-1.36-2.24-3.57-1.57-5.57,8.39-12.74,15.18-27.87,23.84-40.28,1.18-1.69,2.4-4.02,4.63-4.48"/>
          <path id="Trazado_156" data-name="Trazado 156" class="cls-1" d="M117.23,105.11c2.93-.25,5.52,1.92,5.77,4.86.04.5.01,1.01-.09,1.51-2.62,5.24-5.56,10.32-8.79,15.21-4.42,5.24-11.01,1.67-9.4-4.23,2.69-5.36,5.74-10.54,9.11-15.49.86-1.01,2.07-1.67,3.38-1.86"/>
        </g>
      </g>
    </g>
  </g>
</svg>