<?xml version="1.0" encoding="UTF-8"?>
<svg id="Layer_2" data-name="Layer 2" xmlns="http://www.w3.org/2000/svg" viewBox="0 0 383.19 287.5">
  <defs>
    <style>
      .cls-1 {
        fill: #fff;
      }
    </style>
  </defs>
  <g id="Capa_3" data-name="Capa 3">
    <g>
      <path class="cls-1" d="M383.19,122l-4.83,3.03-123.5-.09c-3.29-.51-7.46-4.2-8.3-7.41-1.37-5.25,1.18-11.94-1.47-16.49h-11.6v95.06c12.5,3.72,23.71,16.65,27.48,29.03,13.02,42.68-33.47,78.67-71.13,54.66-8.91-5.68-13.8-13.23-18.98-22.19l-55.19-.17c-15.79,39.43-72.28,39.73-88.16.17-12.22.96-24.37-1.4-27.4-14.9l-.12-95.57c1.23-6.46,5.67-12.19,12.05-14.15.75-.23,5.12-1.26,5.48-1.26h30.32V33.3c0-6.92,9.92-15.4,16.85-15.34,25.04,1.47,52.34-1.98,77.12-.04,8.86.7,15.39,4.56,20.14,12.05,12.76,43.23,20.98,87.9,32.37,131.56.41,1.58.71,3.24,1.22,4.79.25.76.31,2.72,1.62,2.08l1.17-3.32.55-140.18c.8-2.52,6.45-6.95,8.77-6.95h14.6c.63-3.95-1.17-12.24.7-15.39,2.83-4.77,10.53-1.89,10.53,3.04v60.26h12.73V3.36c0-1.01,3.99-3.45,5.55-3.36,2.12.12,5.67,2.79,5.67,4.86v108.91h120.14c1.3,0,4.9,2.34,5.61,3.74v4.49ZM184.08,168.41l-30.9-130.41c-1.49-5.17-6.26-8.13-11.39-8.82-24.35,1.68-51.64-2.22-75.64-.03-2.38.22-7.08,2.36-7.08,4.9v97.68h12.73v-38.55c0-1.4,2.72-6.85,3.74-8.23,9.17-12.34,29.73-6.97,31.44,8.23,1.52,13.5-1.45,29.3.38,43.03,10.33,7.45,18.65,20.13,28.45,27.69,2.73,2.1,7.81,4.51,11.21,4.51h37.05ZM209.53,168.41h11.6V29.19h-11.6v139.23ZM246.21,89.82v-11.6l-1.12-1.12h-11.6v12.73h12.73ZM95.75,132.48v-39.3c0-1.36-4.94-4.16-6.93-3.96-2.35.23-5.79,3.17-5.79,5.46v37.05l12.73.75ZM222.25,179.64h-75.23c-24.59,0-33.15-34.88-57.61-36.71-22.47-1.68-46.98,1.34-69.67,0-2.74.14-6.84,1.22-8.01,3.96v95.43c1.8,4.45,8.75,4.92,12.58,3.21-4.6-41,40.7-68.57,75.11-44.49,7.85,5.49,19.53,21.67,19.53,31.37v13.85h49.4c-3.2-22.04,10.52-44.79,31.79-51.67,1.45-.47,7.29-2.22,8.26-2.22h13.85v-12.73ZM65.63,203.79c-43.74,5.92-38.32,75.09,8.03,72.4,48.82-2.84,43.43-79.36-8.03-72.4ZM241.45,265.46c35.19-35.19-21.53-86.85-53.27-49.9-30.52,35.54,20.53,82.65,53.27,49.9Z"/>
      <path class="cls-1" d="M281.39,89.82h72.61V17.21h-18.71v31.81c0,1.51-3.06,3.92-4.83,4.15-3.99.53-22.59.64-26.22-.05-1.09-.21-4.13-2.93-4.13-3.35V17.21h-18.71v43.04c0,5.02-10.1,7.62-11.18.7-2.09-13.33,1.42-31.69,0-45.57,1.39-5.21,5.96-9.32,11.52-9.44,23.21,1.6,49.03-2.03,71.92,0,6.08.54,10.36,4.1,11.51,10.2-1.22,23.61,1.85,49.2.1,72.57-.47,6.25-3.4,11.73-10.1,12.36-24.14,2.26-51.83-1.72-76.34-.08-4.36-1.04-8.13-4.78-8.67-9.29-.44-3.63-.83-11.02,2.8-12.95,6.68-3.54,9.74,5.67,8.44,11.06ZM324.05,17.21h-12.73v24.7h12.73v-24.7Z"/>
      <path class="cls-1" d="M75.32,156.59c2.15-.64,5.62-.2,6.88,1.79s1.23,14.41.66,16.98c-1.34,6.05-10.05,4.81-11.02-1.38-.61-3.87-1.08-16.03,3.48-17.39Z"/>
      <path class="cls-1" d="M33.4,157.41c2.31,1.86,2.24,14.96,1.55,17.95-1.18,5.13-9.74,5.03-10.87-.02-.53-2.4-.58-12.26-.04-14.63.9-4,6.13-5.9,9.36-3.3Z"/>
      <path class="cls-1" d="M49.53,177.95c-2.16-1.99-2.19-14.28-1.53-17.24,1.27-5.65,9.73-5.87,10.91-.75.51,2.22.51,13.18,0,15.4-.88,3.78-6.7,5.06-9.38,2.58Z"/>
      <path class="cls-1" d="M67.12,216.52c4.41-.65,10.17-.3,9.97,5.39-.26,7.44-10.32,4.01-15.04,9.74-9.43,11.46,5.37,26.73,17.18,17.93,6.16-4.58,2.82-13.23,8.23-14.97,9.91-3.18,7.88,10.03,5.19,15.66-8.61,18.05-34.99,17.02-42.71-1.27-5.73-13.57,2.23-30.31,17.17-32.5Z"/>
      <path class="cls-1" d="M210.83,216.5c30.9-4.86,38.52,37.69,12.02,45.71-33.13,10.03-42.39-40.93-12.02-45.71ZM206.79,230.8c-9.36,8.89.82,26.42,14.24,19.85,17.11-8.37-.42-32.98-14.24-19.85Z"/>
    </g>
  </g>
</svg>