<?xml version="1.0" encoding="UTF-8"?>
<svg id="Layer_2" data-name="Layer 2" xmlns="http://www.w3.org/2000/svg" xmlns:xlink="http://www.w3.org/1999/xlink" viewBox="0 0 259.1 286.41">
  <defs>
    <style>
      .cls-1 {
        fill: #fff;
      }

      .cls-2 {
        fill: none;
      }

      .cls-3 {
        clip-path: url(#clippath);
      }
    </style>
    <clipPath id="clippath">
      <rect class="cls-2" width="259.08" height="286.4"/>
    </clipPath>
  </defs>
  <g id="Capa_3" data-name="Capa 3">
    <g id="Grupo_71" data-name="Grupo 71">
      <g class="cls-3">
        <g id="Grupo_71-2" data-name="Grupo 71-2">
          <path id="Trazado_115" data-name="Trazado 115" class="cls-1" d="M151.64,0c4.63,1.28,8.08,5.17,8.8,9.93.89,10.74.94,21.53.15,32.28-.59,6.23-6.08,10.83-12.31,10.34.32,10.89-1.37,22.49,3.43,32.64,3.12,6.6,9.53,12.23,12.89,18.97,3.11,6.69,4.8,13.95,4.98,21.32.84,16.79-.7,34.29,0,51.15,7.4,1.27,13.96,5.52,18.15,11.76h.82c.36-1.26,1.15-2.35,2.24-3.08,11.95-10.95,30.51-10.14,41.45,1.81,2.07,2.26,3.77,4.82,5.04,7.61,7.58,16.08,14.22,32.58,19.89,49.43,12.31,37.65-37.51,56.05-53.62,22.87l-10.53-25.53v15.93c-.58,13.19-9.61,24.49-22.34,27.97-52.95,1.43-106.51,1.23-159.45.1-6.55-2.2-11-8.29-11.1-15.2V123.79c-1.84-19.43,17.87-30.85,20.65-47.55.71-7.57.89-15.19.54-22.78-.49-1.48-3.12-.72-4.54-1.05-4.49-1-7.95-4.57-8.81-9.08-1.29-10.59.95-23.77.05-34.64C9.15,4.57,12.29,1.31,16.36,0h135.28ZM149.4,11.18H19.15v30.18h130.25V11.18ZM137.1,52.54H32.57c.14,14.79,1.05,28.45-6.81,41.55-4.6,7.69-12.88,14.18-13.32,23.86h47.8c1.92,0,4.09,3.37,4.22,5.32.15,2.01-1.69,5.86-3.67,5.86H12.16l-.84.84v110.95h122.98v-37.16c.36-3.4,1.16-6.73,2.37-9.93,3.59-8.99,11.57-15.49,21.11-17.18v-47.5h-50.03c-1.73,0-4.13-3.88-4.01-5.79.12-1.98,2.53-5.39,4.57-5.39h48.92c-.95-10.77-10.29-17.62-14.99-26.65-6.33-12.17-5.09-25.46-5.13-38.75M181.83,225.28v-20.4c-.19-10.06-8.49-18.07-18.56-17.89-4.42.08-8.65,1.76-11.92,4.73-3.33,3.41-5.4,7.85-5.85,12.59v20.96h36.33ZM201.46,231.91l33.46-13.1c-3.44-6.5-5.18-15.08-8.82-21.32-5.15-8.5-16.22-11.21-24.72-6.06-1.94,1.17-3.63,2.7-5,4.5-8.78,11.45,1.51,24.56,5.09,35.97M239.35,229.79l-33.48,12.83c3.41,6.82,5.29,15.91,9.26,22.3,5.49,8.35,16.71,10.67,25.06,5.19,1.36-.9,2.6-1.97,3.67-3.2,10.01-12-.8-24.96-4.5-37.12M146.33,236.46l-.84.84v20.12c.26,10.03,8.61,17.95,18.65,17.69,9.66-.25,17.43-8.03,17.69-17.69v-20.13l-.84-.84h-34.66ZM134.31,252.11H12.16l-.84.84v17.89c0,1.07,2.61,4.19,3.63,4.19h125.5c-4.51-6.76-6.67-14.81-6.15-22.92"/>
          <path id="Trazado_116" data-name="Trazado 116" class="cls-1" d="M105.78,206.83c.77,7.15-.76,14.45-7.99,17.44-3.58,1.48-19.26,1.5-23.59,1.01-9.09-1.03-13.26-10.13-12.01-18.45-7.33.8-15-1.44-17.6-8.95-1.38-8.55-1.43-17.26-.14-25.83,2.45-7.79,10.4-9.67,17.74-8.82-.67-7.77,1.22-15.11,9.12-18,8.43-1.58,17.08-1.64,25.53-.17,7.89,2.57,9.61,10.16,9.19,17.64,4.57,1.21,8.21-.47,12.58,2.53,7.73,5.29,6.95,19.41,6.18,27.91-.95,10.53-9.07,14.8-19,13.7M74.06,213.42c.89.51,1.9.75,2.92.71,5.51.27,11.03.17,16.52-.32,3.16-1.53-1.72-14.52,4.26-17.54,4.02-2.03,14.26,1.59,15.61-2.84.55-5.12.64-10.28.28-15.42-.13-1.49-.18-3.28-1.98-3.61-4.01-.73-11.78,1.32-15.11-1.66-3.65-3.26-.79-12.17-2.03-15.86-.3-.63-.87-1.09-1.56-1.24-5.96-.52-11.95-.5-17.9.04-4.13,1.82.87,13.32-3.61,17.07-3.73,3.12-10.2.84-14.55,1.66-.87.08-1.6.66-1.86,1.49-.43,5.36-.48,10.75-.14,16.12-.02.92.16,1.84.54,2.68,1.15,1.81,11.05.55,13.71.95,7.32,1.16,2.56,13.08,4.92,17.72"/>
          <path id="Trazado_117" data-name="Trazado 117" class="cls-1" d="M83.3,118.06c8.41-1.22,8.51,12.31-.11,11.05-3.05-.56-5.06-3.48-4.51-6.52.43-2.33,2.27-4.15,4.62-4.53"/>
        </g>
      </g>
    </g>
  </g>
</svg>