<?xml version="1.0" encoding="UTF-8"?>
<svg id="Layer_2" data-name="Layer 2" xmlns="http://www.w3.org/2000/svg" xmlns:xlink="http://www.w3.org/1999/xlink" viewBox="0 0 303.12 303.67">
  <defs>
    <style>
      .cls-1 {
        fill: #fff;
      }

      .cls-2 {
        fill: none;
      }

      .cls-3 {
        clip-path: url(#clippath);
      }
    </style>
    <clipPath id="clippath">
      <rect class="cls-2" y=".02" width="303.12" height="303.65"/>
    </clipPath>
  </defs>
  <g id="Capa_3" data-name="Capa 3">
    <g id="Grupo_46" data-name="Grupo 46">
      <g class="cls-3">
        <g id="Grupo_38" data-name="Grupo 38">
          <path id="Trazado_66" data-name="Trazado 66" class="cls-1" d="M124.95.02c12.23,3.2,22.91,10.7,30.08,21.11,6.55,9.59,12.95,26.02,19.74,34.1,1.14,1.35,2.54,1.58,3.66,2.91,3.6,4.28,7.58,15.62,10.76,18.76.95.95,8.72,3.79,10.95,5.03,21.27,12.04,30.14,41.88,43.51,61.22,1.05,3.14-.65,6.54-3.79,7.59-2.24.75-4.71.11-6.32-1.63-8.6-13.33-15.49-28.36-24.08-41.61-3.42-5.87-8.19-10.84-13.91-14.49-4.74-2.9-12.58-4.27-15.47-8.21-1.36-1.85-7.81-14.96-8.68-14.98l-26.93,15.38c2,5.83,9.77,13.76,9.47,19.79-.5,10.13-3.08,18.96,2.45,28.93l77.53,134.61,51.39-29.27-26.04-45.47c-1.31-3.02.07-6.54,3.1-7.85,1.8-.78,3.87-.63,5.53.41,10.65,14.9,18.16,32.17,28.52,47.22,2.89-.07,5.53,1.62,6.68,4.27v3.55c-1.38,1.88-3.13,3.45-5.15,4.62-20.58,13.78-45.15,24.48-66.07,38.08-2.86,1.75-6.59.86-8.35-1.99-1.28-2.09-1.18-4.74.25-6.73l-77.36-135.02c-4.46-9.14-6.36-19.3-5.52-29.43.06-2.03,1.26-4.76.76-6.61-1.29-4.7-8.57-13.03-10.64-18.37-.84-2.18-.18-3.47-.6-4.7-3.25-9.39-14.94-24.03-19.79-34.08-6.63-13.77-10.31-41.42,8.4-47.14l5.93.02ZM163.98,60.9c-5.32-9.71-10.52-19.89-16.44-29.33-3.45-6.01-8.19-11.17-13.89-15.1-4.67-2.9-13.44-7.99-15.53-.5-2.06,9.17-.72,18.78,3.77,27.04,5.09,10.33,12.48,20.42,17.85,30.7l1.8.02,22.44-12.83Z"/>
          <path id="Trazado_67" data-name="Trazado 67" class="cls-1" d="M75.85,169.2c3.48-.29,6.59,2.17,7.09,5.63l.27,116.28c3.22.86,5.13,4.17,4.26,7.39-.72,2.7-3.2,4.54-6,4.47-24.15-1.78-51.47,2.26-75.23,0-7.6-.72-8.37-9.09-1.74-11.85l.32-116.83c.8-3.18,3.78-5.32,7.05-5.08-.03-21.97-2.18-41.08,9.39-60.72,14.27-24.2,31.41-23.73,45.4.39,11.37,19.6,9.21,38.45,9.19,60.33M63.99,169.23v-32.23c0-8.11-7.02-22.85-12.42-29-6.63-7.55-9.25-7.23-15.71.32-5.3,6.18-12.13,20.6-12.13,28.7v32.24l40.25-.03ZM71.09,181.06H16.63v110.04h54.45v-110.04Z"/>
          <path id="Trazado_68" data-name="Trazado 68" class="cls-1" d="M255.56,172.57c-5.29,5.41-13.88-3.18-8.47-8.46,2.5-2.17,6.29-1.91,8.46.59,1.96,2.26,1.96,5.62,0,7.87"/>
        </g>
      </g>
    </g>
  </g>
</svg>