<?xml version="1.0" encoding="UTF-8"?>
<svg id="Layer_2" data-name="Layer 2" xmlns="http://www.w3.org/2000/svg" xmlns:xlink="http://www.w3.org/1999/xlink" viewBox="0 0 271.65 283.52">
  <defs>
    <style>
      .cls-1 {
        fill: #fff;
      }

      .cls-2 {
        fill: none;
      }

      .cls-3 {
        clip-path: url(#clippath);
      }
    </style>
    <clipPath id="clippath">
      <rect class="cls-2" width="271.55" height="283.52"/>
    </clipPath>
  </defs>
  <g id="Capa_3" data-name="Capa 3">
    <g id="Grupo_75" data-name="Grupo 75">
      <g class="cls-3">
        <g id="Grupo_74" data-name="Grupo 74">
          <path id="Trazado_126" data-name="Trazado 126" class="cls-1" d="M142.4,0c9.14,2.01,14.93,11.05,12.92,20.2-.58,2.65-1.79,5.11-3.52,7.2-3.1,3.72-6.78,4.61-11.09,6.19.65,19.78-.77,40.01,0,59.73.54,13.69,2.95,26.02,10.42,37.75l44.99,58.85V53.43c-4.54-2.21-8.38-3.83-10.83-8.55-4.5-8.16-1.54-18.42,6.62-22.93,2.06-1.14,4.34-1.83,6.69-2.04,18.63,1.23,39.23-1.58,57.62,0,9.25.77,16.13,8.89,15.36,18.13-.16,1.98-.68,3.91-1.52,5.71-2.37,5.58-6.29,7.11-11.29,9.74-.98,13.08,1.05,27.47-.05,40.37-.26,3.07-1.84,4.74-5.16,4.02-1.5-.66-2.65-1.92-3.16-3.47v-41.27h-45.98v13.84h14.67c2.21,0,3.72,3.84,2.76,6.08-.66.81-1.4,1.55-2.21,2.21h-15.22v13.84h14.67c2.21,0,3.72,3.84,2.76,6.08-.66.81-1.4,1.55-2.21,2.21h-15.22v13.84h14.67c2.21,0,3.72,3.84,2.76,6.08-.66.81-1.4,1.55-2.21,2.21h-15.22v16.06c6.9-2.14,14.33-1.85,21.03.84,2.31.93,4.35,2.59,6.5,3.47,5.9,2.39,12.49,2.44,18.43.12v-27.41c0-3.64,7.63-5.96,8.32,0v142.89c-2.91,25.49-34.33,37.4-52.97,19.17-6.52,5.06-14.37,8.12-22.6,8.81H34.15c-41.53-3.62-40.03-52.74-22.63-80.26,8.21-12.96,19.84-25.09,28.8-37.64,4.87-2.03,8.18,1.41,5.56,6.11-.68,1.22-8.06,9.93-7.55,10.44,24.09-8.15,53.68-10.06,75.58,4.79,18.46-9.96,39.64-17.48,60.62-10.89-16.1-24.39-40.78-44.65-42.11-76.1l.02-66.74h-47.62v13.84h15.23c.81.66,1.55,1.4,2.21,2.21.96,2.24-.56,6.08-2.76,6.08h-14.68c.12,4.39-1.81,9.83.28,13.84h14.95c.81.66,1.55,1.4,2.21,2.21.96,2.24-.56,6.08-2.76,6.08h-15.24v13.84h15.79c.81.66,1.55,1.4,2.21,2.21,3.79,8.84-13.66,5.48-18,6.08-.2,22.67-13.63,40.48-27.4,57.03-1.64,1.57-4.24,1.5-5.8-.14-1.31-1.37-1.51-3.46-.49-5.05,2.58-5.09,9.88-12.43,13.44-17.57,7.47-10.66,11.81-23.2,12.53-36.2V33.59c-7.55-2.03-14.26-6.57-15-15.01-.83-9.5,4.6-15.8,13.31-18.57h67.54ZM76.38,8.44c-4.51.97-7.38,5.41-6.42,9.92.73,3.39,3.46,5.97,6.89,6.5l62.52.05c4.6-.12,8.23-3.95,8.11-8.55-.11-4.03-3.07-7.4-7.05-8.02l-64.05.09ZM260.72,43c3.41-3.38,3.43-8.88.05-12.28-1.25-1.26-2.87-2.11-4.62-2.43h-57.49c-4.59.77-7.69,5.12-6.92,9.71.56,3.34,3.07,6.02,6.36,6.8,18.48-1.2,39.36,1.77,57.56.07,1.84-.06,3.61-.72,5.05-1.87M250.39,148.95c-4.38,1.08-8.92,1.4-13.41.95-11.26-1.28-14.4-9.03-28.26-6.91-1.46.22-4.66,1.05-4.32,2.88v108.58c1.36,12.71,12.77,21.92,25.49,20.56,6.07-.65,11.64-3.67,15.49-8.41,2.24-3,3.94-6.37,5.01-9.95v-107.69ZM9.62,229.89c-4,21.1.4,43.69,25.63,45.33h147.33c6.41-.35,12.52-2.82,17.37-7.03-1.72-3.89-3-7.95-3.82-12.12-1.6-16.45,1.29-35.22-.14-51.91-3.3-4.93-6.88-9.66-10.74-14.17-3.86-3.23-16.01-6.95-21.11-7.69-26.29-3.76-55.14,18.05-78.38,28.73-19.26,9.13-39.86,15.09-61.02,17.63-2.26.24-14.62.43-15.13,1.21M105.32,191.03c-18.75-9.17-41.12-8.08-60.78-2.37-3.79,1.1-14.44,4.67-17.12,6.97-3.47,4.08-6.63,8.41-9.47,12.95-2.32,3.9-4.21,8.04-5.63,12.35,26.41-.32,52.01-8.53,75.5-20.01,6.07-2.87,11.92-6.17,17.51-9.89"/>
          <path id="Trazado_127" data-name="Trazado 127" class="cls-1" d="M105.18,128.58c24.36-4.13,24,32.73,1.02,29.72-16.5-2.16-16.44-27.1-1.02-29.72M113.44,148.19c6.95-6.95-4.92-16.67-10.33-8.95-2.18,3.11-1.43,7.39,1.68,9.57,2.67,1.87,6.28,1.61,8.66-.62"/>
          <path id="Trazado_128" data-name="Trazado 128" class="cls-1" d="M149.49,217.76c27.87-2.97,31.55,40.02,3.72,41.91-27.07,1.84-30.71-39.04-3.72-41.91M150.04,226.05c-15.92,1.96-13.69,26.5,2.61,25.33,16.98-1.22,14.26-27.41-2.61-25.33"/>
          <path id="Trazado_129" data-name="Trazado 129" class="cls-1" d="M54.8,233.81c19.14-2.62,22.32,26.24,4.24,28.6-19.41,2.53-22.38-26.11-4.24-28.6M52.34,252.32c5.63,6.37,15.22-3.59,8.16-8.99-6.17-4.71-12.6,3.97-8.16,8.99"/>
          <path id="Trazado_130" data-name="Trazado 130" class="cls-1" d="M120.11,211.08c2.24-.7,4.62.55,5.32,2.79.64,2.07-.37,4.29-2.36,5.16-2.24.7-4.62-.55-5.32-2.79-.64-2.07.37-4.29,2.36-5.16"/>
          <path id="Trazado_131" data-name="Trazado 131" class="cls-1" d="M90.76,225.52c2.98,3.69-1.95,9.5-5.9,6.19-4.78-4.02,2.39-10.55,5.9-6.19"/>
          <path id="Trazado_132" data-name="Trazado 132" class="cls-1" d="M224.23,168.46c20.13-3.41,22.95,24.98,5.26,27.41-18.34,2.53-21.56-24.64-5.26-27.41M231.38,177.93c-2.26-2.14-5.82-2.04-7.95.22-1.69,1.79-2.02,4.47-.82,6.62,4.01,7.48,14.86-.82,8.77-6.84"/>
          <path id="Trazado_133" data-name="Trazado 133" class="cls-1" d="M224.2,214.45c3.32,3.9-2.06,9.53-5.91,6.2-4.42-3.83,2.14-10.62,5.91-6.2"/>
          <path id="Trazado_134" data-name="Trazado 134" class="cls-1" d="M229.2,244.82c4.92-.9,6.53,7.05,1.96,8.1-6.78,1.55-6.91-7.2-1.96-8.1"/>
        </g>
      </g>
    </g>
  </g>
</svg>