<?xml version="1.0" encoding="UTF-8"?>
<svg id="Layer_2" data-name="Layer 2" xmlns="http://www.w3.org/2000/svg" viewBox="0 0 383.25 249.17">
  <defs>
    <style>
      .cls-1 {
        fill: #fff;
      }
    </style>
  </defs>
  <g id="Capa_3" data-name="Capa 3">
    <g>
      <path class="cls-1" d="M0,10.4C2.28,5.76,5.62,1.75,11.03.85c6.91-1.16,31.5-1.04,38.76-.19,8.67,1,5.41,11.24,1.48,11.24H12.35l-1.12,1.12v134.36h223.06V13.02l-1.12-1.12H74.48c-.59,0-2.85-1.96-3.28-2.7-2.47-4.26.79-8.75,5.49-8.56l157.23.03c3.94-.25,11.6,5.58,11.6,9.36v15.72l2.58,1.16,93.61-.04c5.27.6,8.12,3.85,10.47,8.25,12.01,22.48,21.19,51.58,30.98,75.31l.09,103.21c-2.15,19.13-29.4,10.28-42.18,12.47-4.36,6.64-8.48,12.51-15.37,16.82-20.85,13.06-47.7,4.85-58.24-16.97-9.94-.77-21.6,1.13-31.33.05-4.56-.51-7.82-4.11-5.5-8.53.28-.52,2.33-2.72,2.52-2.72h29.94l.94-1.09c-1.5-5.11-.06-10.37.93-15.38h-69.24c-1.54,0-6.62-3.53-7.86-4.87l-24.33-34.8H11.23v55.39l30.69.75v-10.85c0-20.1,23.39-36.3,42.33-35.59,17.35.66,38.51,17.38,38.51,35.59v10.85l87.94.02c7.19,3,4.6,11.51-2.95,11.24h-87.59c-2.08.39-6.8,9.1-9.35,11.6-15.68,15.44-41.85,15.33-57.31-.37-3.27-3.32-5.19-7.72-8.33-11.13-14.3-2.7-39.02,7.07-45.16-10.6V10.4ZM341.33,38.1h-95.81v148.96h24.33c15.22-24.41,53.08-25.38,67.74,0h34.43v-17.96h-30.32c-2.32,0-5.79-5.72-6.18-8.04-.83-4.91-.67-17.85-.21-23.06.32-3.58,3.04-10.07,7.14-10.07h29.57v-12.73h-55.02c-2.88,0-7.82-4.39-10.12-6.35-5.05-4.31-13.68-11.78-17.95-16.48-.9-.99-2.13-2.97-2.49-4.24-1.07-3.71-1.15-28.77-.46-33.14.31-1.94,3.95-6.41,5.57-6.41h53.52l-3.74-10.48ZM369.03,103.97l-19.09-44.16h-52.77v24.33l21.33,19.84h50.53ZM372.02,139.15h-25.45v18.71h25.45v-18.71ZM234.29,158.61h-56.14l17.94,27.13c.36.43,1.5,1.31,1.9,1.31h36.3v-28.44ZM103.03,229.46c27.1-27.1-14.02-68.43-41.31-41.69-27.47,26.92,13.98,69.03,41.31,41.69ZM300,179.78c-35.84,4.16-32.06,60.76,6.52,58.16,37.72-2.54,34.11-62.88-6.52-58.16ZM372.02,198.28h-29.19c.18,1.19,1.5,4.01,1.5,4.87v11.6h25.82c.25,0,1.14-.99,1.87-.75v-15.72Z"/>
      <path class="cls-1" d="M35.72,27.03c4.97-1.14,7.3,1.46,7.74,6.17,2.63,28.48-2.05,60.97-.02,89.88-.43,7.06-10.37,7.66-11.28.77l.03-92.12c.08-2.33,1.22-4.16,3.54-4.69Z"/>
      <path class="cls-1" d="M206.38,27.03c5.35-1.22,7.49,1.96,7.73,6.92-2.35,28,3.04,60.94-.03,88.36-.93,8.33-10.51,9.04-11.26.78-2.64-28.99,2.06-61.96.02-91.37.08-2.33,1.22-4.16,3.54-4.69Z"/>
      <path class="cls-1" d="M70.16,27.02c4.64-1,6.58,1.11,6.97,5.43,2.65,28.98-2.07,61.97-.02,91.37-.82,7.08-10.4,7.2-11.27-2.23-2.6-27.99,2-59.95.03-88.36.2-2.76,1.3-5.57,4.29-6.22Z"/>
      <path class="cls-1" d="M103.83,27.02c4.83-1.45,7.33,1.73,7.74,6.17,2.63,28.48-2.05,60.97-.02,89.88-.76,6.38-7.28,7.81-10.85,2.59l-.43-93.96c-.14-1.61,2.18-4.25,3.56-4.67Z"/>
      <path class="cls-1" d="M171.94,27.03c3.27-.98,5.48.3,7.31,2.85v95.78c-4.26,5.58-10.23,3.62-10.87-3.32-2.63-28.48,2.05-60.97.02-89.88-.05-1.87,1.76-4.9,3.54-5.44Z"/>
      <path class="cls-1" d="M138.28,27.02c5.91-1.3,7.3,2.73,7.72,7.69,2.32,27.79-1.79,58.74-.02,86.86.03,8.22-10.44,10.58-11.27,1.53-2.64-28.99,2.06-61.96.02-91.37.06-2.28,1.23-4.19,3.55-4.7Z"/>
      <path class="cls-1" d="M82.09,191.84c21-.34,22.61,31.26,2.87,33.39-24.99,2.7-25.31-33.02-2.87-33.39ZM79.87,203.69c-3.93,1.15-3.91,9.01,0,10.15,10.6,3.11,10.6-13.27,0-10.15Z"/>
      <path class="cls-1" d="M315.63,196.3c15.46,13.71-4.81,38.7-21.82,25.93-18.24-13.69,4.03-41.72,21.82-25.93ZM304.29,203.14c-7.44-.27-8.14,11.71.75,10.93,6.36-.56,5.81-10.7-.75-10.93Z"/>
    </g>
  </g>
</svg>