<?xml version="1.0" encoding="UTF-8"?>
<svg id="Layer_2" data-name="Layer 2" xmlns="http://www.w3.org/2000/svg" viewBox="0 0 383.31 383.08">
  <defs>
    <style>
      .cls-1 {
        fill: #fff;
      }
    </style>
  </defs>
  <g id="Capa_3" data-name="Capa 3">
    <g>
      <path class="cls-1" d="M203.58,0c4.28,1.8,12.29-.24,15.73,3.36,3.81,3.99,2.58,10.36-2.58,12.42-3.7,1.48-12.13-.7-16.49-.83C84.03,11.35-5.56,114.16,19,229.19c24.67,115.6,156.55,174.86,259.92,116.01,91.21-51.93,118.2-173.91,54.49-258.37-1.21,4.57,1.39,10.02-3.1,13.36-5.9,4.39-11.64-.37-12.26-6.97-.58-6.17-.74-21.73.1-27.66.41-2.89,2.72-6.35,5.7-7.02,3.42-.77,28.26-.71,31.85.01,5.82,1.18,7.87,8.23,3.87,12.51-.42.45-3.49,2.28-3.7,2.28h-13.09c19.26,25.98,33.11,55.85,38.04,88.08l2.37,18.96c-.33,7.67.45,15.55,0,23.2-10.07,172.21-229.51,243.88-339.69,109.64C-55.55,192.61,25.07,9.04,179.64,0h23.94Z"/>
      <path class="cls-1" d="M183.23,48.88c125.55-7.89,199.41,142.65,115.77,237.08-85.11,96.09-244.51,39.89-250.33-87.93-1.05-23.05,7.22-64.51,22.17-82.68,5.74-6.97,14.24-3.06,13.75,5.49-7.93,13.62-14.42,27.41-17.7,42.95-19.54,92.7,61.16,173.06,153.77,152.33,84.47-18.91,125.33-117.24,80.06-191.35-37.85-61.95-118.94-79.39-180.01-40.33-7.2.89-11.39-7.15-6.57-12.61,2.42-2.75,13.3-8.08,17.11-9.83,16.12-7.41,34.23-12.01,51.98-13.12Z"/>
      <path class="cls-1" d="M259.5,115.43c5.55-.56,10.35,6.16,7.22,11l-51.57,52.51c-.89,1.99,1.5,5.48,1.83,7.89,5.4,39.78-55.29,40.49-50.82.68.29-2.62,2.74-6.7,1.9-8.57l-24.67-24.78c-5.72-7.99,2.04-16.37,10.3-11.05,4.93,2.87,22.36,24.36,25.72,25.21,1.58.4,5.29-1.79,7.39-2.07,6.01-.82,11.34.38,16.99,2.07l49.9-49.67c1.51-1.2,3.88-3.02,5.79-3.21ZM188.41,181.32c-10.17,2.11-10.26,19.97,2.04,20.83,16.78,1.17,15.35-24.44-2.04-20.83Z"/>
      <path class="cls-1" d="M287.17,184.3c5-1.13,16.93-1.15,18.14,5.5,1.94,10.61-10.26,10.19-17.57,9.33-8.66-1.02-7.91-13.17-.57-14.83Z"/>
      <path class="cls-1" d="M189.93,281.61c9.88-1.63,10.39,11.07,8.99,18-1.6,7.94-13.55,7.7-14.75.13-.39-2.44-.38-11.64.29-13.84s3.25-3.92,5.47-4.29Z"/>
      <path class="cls-1" d="M189.18,78.04c4.28-1.1,9.15.89,9.88,5.47.38,2.41.38,11.7-.29,13.84-2.02,6.46-13.39,5.58-14.59-1.95-.77-4.87-.97-15.82,5-17.36Z"/>
      <path class="cls-1" d="M82.9,184.3c2.32-.52,10.05-.47,12.58-.17,6.62.78,8.73,9.7,2.98,13.49-3.34,2.2-14.02,2.27-17.38.17-5.21-3.27-3.98-12.18,1.82-13.49Z"/>
      <path class="cls-1" d="M241.53,7.64c12.06-2.74,12.22,16.32.79,14.67-8.24-1.19-8.28-12.97-.79-14.67Z"/>
      <path class="cls-1" d="M94.13,88.47c10.34-2.29,12.65,13.66,2.75,14.81s-11.24-12.93-2.75-14.81Z"/>
    </g>
  </g>
</svg>