<?xml version="1.0" encoding="UTF-8"?>
<svg id="Layer_2" data-name="Layer 2" xmlns="http://www.w3.org/2000/svg" xmlns:xlink="http://www.w3.org/1999/xlink" viewBox="0 0 284.59 330.52">
  <defs>
    <style>
      .cls-1 {
        fill: #fff;
      }

      .cls-2 {
        fill: none;
      }

      .cls-3 {
        clip-path: url(#clippath);
      }
    </style>
    <clipPath id="clippath">
      <rect class="cls-2" y="0" width="284.59" height="330.52"/>
    </clipPath>
  </defs>
  <g id="Capa_3" data-name="Capa 3">
    <g id="Grupo_35" data-name="Grupo 35">
      <g class="cls-3">
        <g id="Grupo_35-2" data-name="Grupo 35-2">
          <path id="Trazado_55" data-name="Trazado 55" class="cls-1" d="M204.34,330.52c-12.48-3.21-18.39-15.06-12.28-26.81l27.76-38.1-12.95-48.7c-30.68,4.77-62.29-10.44-74.53-39.4-15.4,12.13-35.27,17.06-54.55,13.54l-12.9,48.73.71,1.88c7.58,11.57,18.99,23.05,26,34.69,9.26,15.39-1.26,30.57-19.02,28.06-18.72-2.65-40.08-12.39-59.07-15.83-9.54-2.41-15.33-12.1-12.92-21.64.58-2.3,1.61-4.46,3.04-6.36,6.37-8.71,35.16-16.52,45.97-22.47,1.04-.38,1.95-1.03,2.63-1.89l13.26-48.09c-30.27-11.78-50.67-42.34-44.23-75.21.98-4.35,2.35-8.6,4.1-12.7,8.3-21.22,19.81-42.08,28.38-63.3,1.29-1.82,3.39-2.87,5.62-2.82,8.49,1.51,16.83,3.78,24.92,6.78,5.34,2.99,2.74,11.6-3,11.97-2.97.19-17.85-5.46-18.98-4.46l-23.3,53.28c-.15,1.17.23.77.81,1.11,10.27,5.91,26.91,6.03,38.07,2.86,7.61-2.16,12.88-6.92,20.19-9.51,15.89-5.7,33.37-5,48.75,1.95l2.56-27.09c-6.21-2-21.39-2.17-19.2-11.83.99-4.36,5.33-4.55,8.94-4.04,7.15,1.44,14.16,3.5,20.96,6.15,5.23,3.51,1.8,9.77,2.25,14.86l62.1-16.35c2.57-.45,5.15.74,6.47,2.99,8.66,21.82,21.31,43.63,29.42,65.49,13.14,35.43-6.34,71.85-40.46,84.81l.11,2.67,12.44,46.32,44.15,19.75c11.46,8.47,10.61,25.32-2.74,31.4l-63.06,17.31h-6.46ZM222.33,74.27l-61.27,15.72-3.21,28.1c11.1-.8,22.24,1,32.52,5.26,10.89,4.79,15.95,9.65,29.15,10.23,5.11.22,22-1.89,25.51-5.49.55-.57.83-.8.37-1.61l-23.06-52.22ZM145.47,111.76c-12.88-7-28.07-8.37-41.99-3.79-6.48,2.17-11.68,6.45-18.25,8.86-13.13,4.76-27.42,5.27-40.86,1.45-1.74-.49-9.84-4.01-10.48-3.4-8.86,50.87,53.11,84.36,92.33,51.32,17.4-14.66,17.35-33.34,19.26-54.45M250.82,140.06c-15.79,7.37-33.8,8.4-50.33,2.88-6.58-2.29-11.88-6.71-18.11-9.01-8.12-2.9-16.85-3.69-25.36-2.28-.81.5-2.14,11.32-2.71,13.58-1.44,5.26-3.55,10.31-6.26,15.04-1.26,2.24-5.11,6.21-4.92,8.36.98,3.49,2.42,6.84,4.28,9.96,11.82,20.92,38.84,30.28,61.72,24.7,27.33-6.67,47.45-34.95,41.68-63.23M54.36,249.91l-38.8,16.77c-4.64,3.68-2.74,8.82,2.82,9.93,18.06,3.21,37.72,12.03,55.5,14.88,5.96.95,10.15-.92,7.39-7.39l-24.77-33.32c-.42-.74-1.3-1.1-2.12-.87M228.88,274.99l-25.22,34.52c-3.05,4.76.66,9.26,6,7.94,17.81-6.53,40.1-8.71,57.44-15.53,5.13-2.01,6.55-5.63,2.01-9.39l-40.22-17.55Z"/>
          <path id="Trazado_56" data-name="Trazado 56" class="cls-1" d="M136.09,35.25l-16.69-26.24c-2.29-7.56,5.77-12.39,11.31-6.15,5.9,6.63,10.46,18.05,16,25.32,1.79,6.92-4.96,11.03-10.62,7.07"/>
          <path id="Trazado_57" data-name="Trazado 57" class="cls-1" d="M215.79,20.74c3.53-.78,7.02,1.44,7.81,4.97.46,2.08-.12,4.25-1.55,5.82-5.65,2.8-23.82,17.34-28.89,17.27-3.6-.14-6.4-3.18-6.26-6.78.06-1.48.62-2.9,1.59-4.02l27.3-17.27Z"/>
          <path id="Trazado_58" data-name="Trazado 58" class="cls-1" d="M173.02,2.21c3.2-.04,5.99,2.19,6.66,5.32l-6.85,31.61c-1.61,3.25-5.54,4.58-8.79,2.97-2.76-1.36-4.2-4.46-3.46-7.45,1.49-9.41,3.64-18.7,6.43-27.81.81-2.66,3.22-4.52,6-4.64"/>
          <path id="Trazado_59" data-name="Trazado 59" class="cls-1" d="M106.68,47.22c10.1-1.66,9.97,13.89.54,12.76-3.55-.43-6.07-3.65-5.65-7.2.33-2.75,2.39-4.99,5.1-5.56"/>
        </g>
      </g>
    </g>
  </g>
</svg>