<?xml version="1.0" encoding="UTF-8"?>
<svg id="Layer_2" data-name="Layer 2" xmlns="http://www.w3.org/2000/svg" xmlns:xlink="http://www.w3.org/1999/xlink" viewBox="0 0 272 268.74">
  <defs>
    <style>
      .cls-1 {
        fill: #fff;
      }

      .cls-2 {
        fill: none;
      }

      .cls-3 {
        clip-path: url(#clippath);
      }
    </style>
    <clipPath id="clippath">
      <rect class="cls-2" width="271.99" height="268.74"/>
    </clipPath>
  </defs>
  <g id="Capa_3" data-name="Capa 3">
    <g id="Grupo_84" data-name="Grupo 84">
      <g class="cls-3">
        <g id="Grupo_8" data-name="Grupo 8">
          <path id="Trazado_22" data-name="Trazado 22" class="cls-1" d="M.14,21.25C1.9,10.01,10.95,1.34,22.24.06l134.29-.06c13.52,1.11,23.58,12.97,22.47,26.49-.35,4.21-1.77,8.26-4.14,11.76h45.4c12.46,0,22.52,14.97,21.44,26.77-.91,9.93-10.98,22.1-21.44,22.1h-16.73c.75.89,1.79,3.79,2.48,4.29,1.67,1.18,10.19,3.51,13.1,4.82,45.49,20.84,65.46,74.61,44.62,120.09-1.99,4.35-4.33,8.54-6.98,12.52-32.41,48.46-101.26,53.4-141.22,11.42l-64.62-.17c-13.5-1.37-23.34-13.43-21.97-26.93.3-2.93,1.12-5.79,2.43-8.43,1.89-2.96,4.04-5.75,6.43-8.34-10.3-8.31-12.03-23.34-3.9-33.78.74-.95,4.04-3.67,3.9-4.49-10.29-8.31-12.03-23.33-3.9-33.77.74-.95,4.04-3.67,3.9-4.49-10.48-8.62-11.99-24.11-3.37-34.59,1.32-1.6,2.83-3.03,4.5-4.25,3.43-2.3,7.31-3.85,11.38-4.55h16.73c-5.71-8.32-5.71-19.3,0-27.63H21.65C11.64,48.85,1.34,37.1.14,27.6c-.19-2.12-.19-4.25,0-6.38M22.32,10.76c-7.55,1.38-12.55,8.62-11.17,16.17,1.1,6.02,6.01,10.61,12.1,11.3h132.75c7.63-.84,13.13-7.71,12.29-15.33-.71-6.47-5.82-11.57-12.29-12.29l-133.68.15ZM84.98,49.01c-7.55,1.38-12.55,8.62-11.17,16.17,1.1,6.02,6.01,10.61,12.1,11.3h132.76c7.63-.85,13.12-7.72,12.27-15.34-.72-6.46-5.81-11.55-12.27-12.27l-133.69.15ZM185.75,87.15H50.86c-3.33.83-6.31,2.69-8.53,5.3-4.7,6.04-3.61,14.76,2.43,19.46,2.2,1.71,4.87,2.72,7.65,2.89,20.35,1.76,43.17-1.38,63.78,0l1.82-.32c18.61-18.26,44.07-27.81,70.1-26.3.15-.54-2.16-1.03-2.39-1.06M125.1,234.65c44.4,44.6,121.53,22.27,134.44-39.13,14.76-70.04-62.17-122.9-122.02-83.32-36.66,24.67-46.38,74.38-21.71,111.04,2.75,4.08,5.87,7.9,9.32,11.41M108.48,125.39h-57.62c-3.33.83-6.31,2.69-8.53,5.3-4.7,6.04-3.61,14.76,2.43,19.46,2.2,1.71,4.87,2.72,7.65,2.89,13.4,1.16,28.42-.95,41.99.02l.84-.35,7.11-17.24,6.12-10.07ZM92.55,163.64h-41.68c-6.04,0-11.55,8.35-11.46,14.09.09,5.51,5.68,13.54,11.46,13.54h41.68c-1.45-9.15-1.45-18.48,0-27.63M50.87,229.53h56.02l-7.36-13.62-4.8-13.7-.84-.34c-13.41.95-28.23-1.13-41.46.02-17.26,1.49-16.48,25.53-1.58,27.65"/>
          <path id="Trazado_23" data-name="Trazado 23" class="cls-1" d="M187.1,142.9c8.9,1.7,15.72,8.9,16.91,17.89.32,4.47-1.58,7.87-6.55,7.08-4.2-.67-3.5-4.42-4.38-7.31-2.3-6.33-9.3-9.6-15.63-7.3-1.11.4-2.15.96-3.09,1.66-7.74,5.37-4.16,16.13,4.51,17.74,6.69,1.24,10.81.09,16.96,4.82,8.96,6.69,10.8,19.38,4.11,28.34-3.11,4.16-7.7,6.97-12.82,7.84.95,4.74-3.33,9.58-7.98,7.08-3.79-2.04-2.26-6.51-2.75-7.08-.1-.12-2.36-.53-3.13-.86-7.36-2.72-12.65-9.24-13.81-17-.4-4.99,2.77-9.43,7.8-6.74,3.99,2.14,1.75,7.55,6,11.53,9.16,8.59,26.35-1.71,18.06-12.76-4.22-5.62-11.48-3.67-17.27-5.56-10.72-3.17-16.83-14.43-13.66-25.15,2.19-7.42,8.42-12.93,16.05-14.22-1.5-11.14,12.17-11.14,10.67,0"/>
          <path id="Trazado_24" data-name="Trazado 24" class="cls-1" d="M207.63,115.94c3.58-.82,7.74,2.05,10.74,3.91,28.16,17.71,39.78,52.93,27.67,83.92-1.7,4.42-4.45,12.85-10.84,9.23-4.76-2.7-1.3-7.4-.08-10.58,9.92-25.76,4.6-53.22-17.82-70.34-2.7-2.07-11.55-6.52-12.63-8.61-1.37-2.61-.38-5.83,2.23-7.21.24-.12.48-.23.73-.32"/>
          <path id="Trazado_25" data-name="Trazado 25" class="cls-1" d="M123.73,143.57c2.81-.95,5.86.55,6.81,3.35.17.51.27,1.05.28,1.59.08,1.81-4.22,10.47-5.08,13.54-6.75,23.19,1.37,48.15,20.49,62.92,3.41,2.61,13.08,6.67,13.26,10.68.29,6.19-5.2,6.22-9.61,4.27-32.18-14.26-47.39-62.09-29.81-92.56.86-1.5,1.84-3.37,3.65-3.79"/>
          <path id="Trazado_26" data-name="Trazado 26" class="cls-1" d="M188.52,109.57c2.87-.75,5.8.96,6.55,3.83s-.96,5.8-3.83,6.55c-.74.19-1.51.23-2.27.1-2.92-.5-4.88-3.28-4.38-6.2.36-2.08,1.89-3.75,3.93-4.28"/>
          <path id="Trazado_27" data-name="Trazado 27" class="cls-1" d="M172.05,237.08c2.84-.91,5.89.65,6.8,3.49.91,2.84-.65,5.89-3.49,6.8-.12.04-.24.07-.36.1-2.9.71-5.83-1.06-6.54-3.95-.68-2.76.89-5.57,3.59-6.44"/>
        </g>
      </g>
    </g>
  </g>
</svg>