<?xml version="1.0" encoding="UTF-8"?>
<svg id="Layer_2" data-name="Layer 2" xmlns="http://www.w3.org/2000/svg" viewBox="0 0 383.53 384">
  <defs>
    <style>
      .cls-1 {
        fill: #fff;
      }
    </style>
  </defs>
  <g id="Capa_3" data-name="Capa 3">
    <g>
      <path class="cls-1" d="M383.53,376.37c-2.47,4.05-4.35,6.29-9.32,6.77-28.09,2.73-60.57-2.13-89.13-.02-1.84.44-5.6-2.71-5.6-4.13v-31.05h-30.32c-4.84,0-4.72-11.22,1.5-11.22h75.23v-80.44l-1.12-1.12H59.04l-1.12,1.12v80.44h167.3c1.98,0,4.94,2.97,5.22,5.12.22,1.69-1.55,6.1-2.97,6.1h-123.13v31.05c0,2.47-4.18,3.96-6.33,4.15-28.3,2.56-60.42-2-89.13-.02-5.73-.69-9.95-6.3-8.24-12.01l19.8-40.01L.44,290.52c-2.03-3.17,3.46-11.43,6.2-11.43h40.05v-24.32c0-4.54,7.56-11.08,12.35-10.85l268.21.52c3.88.39,9.87,6.79,9.87,10.34v24.32h40.05c1.53,0,5.74,5.07,6.36,6.73v5.24l-20.16,40.03,20.16,40.03v5.24ZM46.69,290.32H13l18.13,36.87v7.82l-18.13,36.87h68.12c-8.73-9.07-22.16-15.54-31.04-23.97-.79-.75-3.39-3.27-3.39-4.09v-53.5ZM370.8,290.32h-33.68v53.5c0,3.76-30.7,23.21-34.43,28.06h68.12l-18.13-36.87v-7.82l18.13-36.87ZM93.1,347.94h-23.2l23.2,17.96v-17.96ZM313.91,347.94h-23.2v17.96l23.2-17.96Z"/>
      <path class="cls-1" d="M264.51,0c16.45,3.83,26.92,17.45,28.47,34.02l-.41,56.51c-3.4,4.61-9.59,3.96-10.66-2.04-3.7-20.66,9.68-66.74-15.38-75.91-18.2-6.66-27.99,10.8-36.01,23.4-13.58,21.33-26.36,44.66-38.74,66.78-7.59,13.56-19.72,32.03-25.45,45.64-3.67,8.72.56,15.82,9.55,17.65l78.89.46c1.65,1.37,2.76,2.22,3.05,4.43,1.54,11.52-2.42,31.29.31,41.59,2.92,11.04,20.18,10.93,22.68-.57l1.48-43.42c1.77-3.85,8.92-2.01,12.48-2.49,13.84-1.88,14.18-21.46.64-23.7-4.25-.7-11.65,1.51-13.33-3.88-.83-2.64-.72-22.55-.01-25.53,1.54-6.45,9.97-5.16,10.88-.31.53,2.84-.63,17.67.03,18.31,31.4,1.12,31.35,45.13,0,46.41l-.93,36.85c-4.37,18.08-27.94,24.15-40.23,9.89-1.36-1.58-5.26-8.8-5.26-10.46v-36.29h-72.23c-13.86,0-25.84-20.3-18.47-32.68,15.42-27.7,30.43-55.67,46.42-83.05,9.7-16.62,26.9-51.7,44.31-58.97l8.22-2.63h9.73Z"/>
      <path class="cls-1" d="M121.54,0c8.12,2.06,16.15,8.1,18.2,16.6,1.08,4.49,1.18,23.12.55,27.96-.7,5.38-8.11,6.14-10.31,1.26-4.86-10.74,7.01-32.88-12.52-34.62-6.17-.55-24.14-.83-29.8.2-12.82,2.34-12.72,22.21,2.83,23.76,5.73.57,13.72-2.54,15.29,4.91l.03,170.58c2.67,12.38,18.28,13.81,23.06,2.07l.17-141.25c-.38-7.34,8.04-10.45,11.2-3.73l-.05,145.83c-6.16,25.42-41.21,24.02-45.51-1.51l-.08-165.66c-30.91,2.15-38.49-38.36-8.24-46.39h35.18Z"/>
      <path class="cls-1" d="M250.82,50.28c3.74-1.12,7.6,1.56,7.71,5.45-1.16,24.33,1.48,49.96.01,74.12-.19,3.07-.47,10.51-3.2,11.76l-51.46.17c-2.42-1.86-3.95-4.66-2.42-7.64,13.11-22.84,25.36-46.25,38.96-68.8,1.76-2.92,7.92-14.32,10.4-15.07ZM247.29,130.94v-53.87l-30.69,53.87h30.69Z"/>
      <g>
        <path class="cls-1" d="M127.8,316.27l-2.31-6.06h-19.63l-2.3,6.19c-.9,2.42-1.67,4.05-2.31,4.89s-1.68,1.27-3.13,1.27c-1.23,0-2.32-.45-3.26-1.35-.94-.9-1.42-1.92-1.42-3.06,0-.66.11-1.34.33-2.04.22-.7.58-1.68,1.09-2.93l12.35-31.35c.35-.9.77-1.98,1.27-3.24s1.02-2.31,1.58-3.14c.56-.83,1.3-1.51,2.21-2.03.91-.52,2.04-.77,3.38-.77s2.5.26,3.41.77,1.65,1.18,2.21,1.99,1.03,1.68,1.42,2.62c.38.93.87,2.18,1.47,3.74l12.61,31.15c.99,2.37,1.48,4.09,1.48,5.17s-.47,2.15-1.4,3.08c-.93.93-2.06,1.4-3.38,1.4-.77,0-1.43-.14-1.98-.41-.55-.28-1.01-.65-1.38-1.12-.37-.47-.77-1.2-1.2-2.17-.43-.98-.8-1.84-1.1-2.58ZM108.43,302.87h14.42l-7.28-19.92-7.15,19.92Z"/>
        <path class="cls-1" d="M158.16,278.5l18.8,28.45v-28.71c0-1.87.4-3.27,1.2-4.2.8-.93,1.88-1.4,3.24-1.4s2.51.47,3.33,1.4c.81.93,1.22,2.33,1.22,4.2v37.97c0,4.24-1.76,6.36-5.27,6.36-.88,0-1.67-.13-2.37-.38-.7-.25-1.36-.65-1.98-1.2-.61-.55-1.19-1.19-1.71-1.93-.53-.74-1.05-1.49-1.58-2.26l-18.34-28.12v28.29c0,1.84-.43,3.24-1.28,4.18s-1.95,1.42-3.29,1.42-2.49-.48-3.33-1.43c-.83-.96-1.25-2.34-1.25-4.17v-37.24c0-1.58.18-2.82.53-3.72.42-.99,1.11-1.79,2.07-2.42.97-.62,2.01-.94,3.13-.94.88,0,1.63.14,2.26.43.63.29,1.17.67,1.65,1.15.47.48.96,1.11,1.45,1.88s1,1.57,1.53,2.4ZM159.21,266.35c-1.12,0-1.88.75-2.27,2.24-.39,1.29-.99,1.94-1.78,1.94-.48,0-.92-.22-1.3-.67-.38-.45-.58-1.08-.58-1.89,0-1.1.24-2.16.72-3.18.48-1.02,1.16-1.83,2.03-2.44s1.79-.91,2.78-.91,1.9.14,2.75.43c.84.29,1.98.75,3.39,1.4s2.39,1.07,2.91,1.25c.53.19,1.11.28,1.75.28s1.14-.16,1.5-.48.64-.89.84-1.73c.35-1.27.94-1.91,1.78-1.91.5,0,.94.23,1.32.69s.56,1.09.56,1.88c0,1.23-.47,2.62-1.4,4.17-.93,1.55-2.38,2.32-4.33,2.32-.75,0-1.51-.13-2.3-.38-.79-.25-1.88-.69-3.26-1.3-1.38-.61-2.42-1.05-3.1-1.32-.68-.26-1.35-.39-2.01-.39Z"/>
        <path class="cls-1" d="M217.89,272.64c5,0,9.3,1.02,12.89,3.05,3.59,2.03,6.31,4.92,8.15,8.66,1.84,3.74,2.77,8.14,2.77,13.19,0,3.73-.5,7.12-1.51,10.17-1.01,3.05-2.52,5.7-4.54,7.94-2.02,2.24-4.5,3.95-7.44,5.14-2.94,1.19-6.31,1.78-10.11,1.78s-7.16-.61-10.14-1.83c-2.99-1.22-5.48-2.94-7.47-5.15-2-2.22-3.51-4.88-4.53-8-1.02-3.12-1.53-6.49-1.53-10.11s.53-7.11,1.6-10.21c1.06-3.1,2.61-5.73,4.63-7.9,2.02-2.17,4.48-3.84,7.38-4.99,2.9-1.15,6.19-1.73,9.88-1.73ZM231.79,297.47c0-3.53-.57-6.6-1.71-9.19-1.14-2.59-2.77-4.55-4.89-5.88-2.12-1.33-4.55-1.99-7.29-1.99-1.95,0-3.76.37-5.42,1.1-1.66.74-3.08,1.81-4.28,3.21s-2.14,3.2-2.83,5.38-1.04,4.64-1.04,7.36.35,5.23,1.04,7.44c.69,2.22,1.67,4.06,2.93,5.52s2.71,2.55,4.35,3.28,3.43,1.09,5.38,1.09c2.5,0,4.8-.63,6.9-1.88,2.1-1.25,3.76-3.18,5-5.8,1.24-2.61,1.86-5.83,1.86-9.65Z"/>
        <path class="cls-1" d="M286.75,307.25c0,2.92-.75,5.54-2.25,7.87-1.5,2.33-3.71,4.15-6.6,5.47-2.9,1.32-6.33,1.98-10.31,1.98-4.76,0-8.69-.9-11.79-2.7-2.2-1.29-3.98-3.02-5.35-5.19-1.37-2.16-2.06-4.26-2.06-6.31,0-1.19.41-2.2,1.24-3.05.82-.85,1.87-1.27,3.14-1.27,1.03,0,1.9.33,2.62.99.71.66,1.32,1.64,1.83,2.93.62,1.54,1.28,2.82,1.99,3.85.71,1.03,1.72,1.88,3.01,2.55,1.29.67,3,1,5.1,1,2.9,0,5.25-.67,7.06-2.03,1.81-1.35,2.72-3.03,2.72-5.05,0-1.6-.49-2.9-1.46-3.9-.98-1-2.24-1.76-3.79-2.29-1.55-.53-3.62-1.09-6.21-1.68-3.47-.81-6.37-1.76-8.71-2.85-2.34-1.09-4.19-2.57-5.57-4.45s-2.06-4.21-2.06-7,.72-5.02,2.17-7.08,3.54-3.65,6.29-4.76c2.74-1.11,5.97-1.66,9.68-1.66,2.96,0,5.53.37,7.69,1.1s3.96,1.71,5.38,2.93,2.47,2.5,3.13,3.84c.66,1.34.99,2.65.99,3.92,0,1.16-.41,2.21-1.23,3.14-.82.93-1.85,1.4-3.08,1.4-1.12,0-1.97-.28-2.55-.84-.58-.56-1.21-1.48-1.89-2.75-.88-1.82-1.93-3.24-3.16-4.26-1.23-1.02-3.21-1.53-5.93-1.53-2.52,0-4.56.55-6.11,1.66-1.55,1.11-2.32,2.44-2.32,4,0,.97.26,1.8.79,2.5.53.7,1.25,1.31,2.17,1.81.92.51,1.86.9,2.8,1.19.94.29,2.5.7,4.68,1.25,2.72.64,5.19,1.34,7.39,2.11s4.08,1.7,5.63,2.8,2.75,2.49,3.62,4.17c.87,1.68,1.3,3.74,1.3,6.17Z"/>
      </g>
    </g>
  </g>
</svg>