<?xml version="1.0" encoding="UTF-8"?>
<svg id="Layer_2" data-name="Layer 2" xmlns="http://www.w3.org/2000/svg" xmlns:xlink="http://www.w3.org/1999/xlink" viewBox="0 0 265.57 265.23">
  <defs>
    <style>
      .cls-1 {
        fill: #fff;
      }

      .cls-2 {
        fill: none;
      }

      .cls-3 {
        clip-path: url(#clippath);
      }
    </style>
    <clipPath id="clippath">
      <rect class="cls-2" width="265.57" height="265.23"/>
    </clipPath>
  </defs>
  <g id="Capa_3" data-name="Capa 3">
    <g id="Grupo_83" data-name="Grupo 83">
      <g class="cls-3">
        <g id="Grupo_82" data-name="Grupo 82">
          <path id="Trazado_151" data-name="Trazado 151" class="cls-1" d="M123.38.33c104.83-7.22,176.66,105.31,125.09,197.43-47.19,84.3-166.84,90.89-223.39,12.53C-35.65,126.13,20.45,7.42,123.38.33M124.09,10.26C56.44,15.1,5.52,73.87,10.37,141.52c1.98,27.62,13.23,53.77,31.94,74.19l42.81-43c-6.21-10.32-12.34-20.87-13.36-33.24-4.16-50.75,47.65-86.76,94.08-66.42,2.24.98,11.53,6.67,12.5,6.43l37.37-37.17c-24.93-22.67-58-34.24-91.62-32.05M222.55,49.82l-36.57,37.09c4.21,3.65,3.57,6.32-.03,10.04-1.89,1.96-16.42,15-17.78,15.55-2.35,1.21-5.23.46-6.71-1.73l-45.02,45.03c10.93,11.79,29.21,12.88,41.46,2.47,3.28-2.55,4.69-7.01,9.79-5.5,4.17,1.23,14.9,14.54,19.66,17.22,1.86,1.82,2.03,4.76.39,6.78-2.99,3.41-6.38,6.45-10.1,9.05-20.61,14.45-47.5,16.36-69.94,4.97-5.61-2.87-10.29-7.41-15.63-10.4l-41.97,43.18c50.13,45.65,127.77,42.02,173.42-8.11,39.57-43.45,42.79-108.84,7.69-155.98-1.13-1.51-7.68-9.82-8.65-9.65M176.71,92.31c-25.89-25.34-70.39-17.35-88.07,13.72-27.51,48.37,27.03,100.37,76.02,76.02,3.81-1.95,7.39-4.33,10.68-7.08.53-.75.86-.8.34-1.8-2.89-3.05-6.02-5.86-9.36-8.41-4.24,2.23-7.26,5.14-11.83,7.11-39.3,16.87-73.75-30.94-48.58-64.9,12.96-18.08,38.12-22.24,56.2-9.28,1.3.93,2.55,1.94,3.73,3.03l10.87-8.41ZM153.31,103.68c-28-13.99-54.99,15.84-43.26,43.26l43.26-43.26Z"/>
        </g>
      </g>
    </g>
  </g>
</svg>