<?xml version="1.0" encoding="UTF-8"?>
<svg id="Layer_2" data-name="Layer 2" xmlns="http://www.w3.org/2000/svg" xmlns:xlink="http://www.w3.org/1999/xlink" viewBox="0 0 294.53 294.04">
  <defs>
    <style>
      .cls-1 {
        fill: #fff;
      }

      .cls-2 {
        fill: none;
      }

      .cls-3 {
        clip-path: url(#clippath);
      }
    </style>
    <clipPath id="clippath">
      <rect class="cls-2" x="0" y="0" width="294.52" height="294.04"/>
    </clipPath>
  </defs>
  <g id="Capa_3" data-name="Capa 3">
    <g id="Grupo_79" data-name="Grupo 79">
      <g class="cls-3">
        <g id="Grupo_78" data-name="Grupo 78">
          <path id="Trazado_141" data-name="Trazado 141" class="cls-1" d="M139.34.27c116.22-6.85,193.65,119.55,135.27,220.63-56.9,98.51-201.19,97.29-256.07-2.38C-34.1,122.94,31.35,6.63,139.34.27M135.4,14.72C55.24,20.57-.56,100.15,17.78,177.91c26.78,113.51,178.44,139.81,241.47,41.43C319.49,125.33,245.96,6.63,135.4,14.72"/>
          <path id="Trazado_142" data-name="Trazado 142" class="cls-1" d="M101.91,146.7c10.33-1.63,9.28,10.16,12.73,17.09,1.18,2.25,2.57,4.38,4.16,6.36,3.44,4.23,10.74,7.45,10.15,13.38l-35.81,62.09c-5.41,6.15-9.45,2.49-14.67-1.02-26.04-17.72-43.76-45.26-49.11-76.3-1.05-6.99-3.12-14.44,6.1-15.81,21.47-3.18,44.8-2.59,66.44-5.79"/>
          <path id="Trazado_143" data-name="Trazado 143" class="cls-1" d="M189.21,145.35c6.71-1.21,14.17.44,20.84.53,15.16.21,33.9-.84,48.61.63,8.1.81,7.96,5.89,7.48,12.71-2.78,31.41-18.01,60.4-42.29,80.52-5.02,4-10.89,9.95-16.62,3.53l-40.03-59.82c-1.19-6.11,5.68-9.47,9.04-13.64,2.72-3.48,4.79-7.41,6.11-11.62,1.47-4.77.7-11.72,6.87-12.83"/>
          <path id="Trazado_144" data-name="Trazado 144" class="cls-1" d="M143.28,27.19c15.31-.64,30.6,1.81,44.95,7.2,7.66,2.82,18.03,5.14,14.21,15.18-5.51,14.45-18.18,36-25.83,50.33-1.78,3.81-3.77,7.52-5.96,11.11-4.37,5.72-9.58,1.6-14.84.47-5.18-1.28-10.58-1.37-15.79-.24-10.06,1.95-10.98,6.11-17.28-4.78-10.88-18.82-19.62-40-30.24-59.08-1.48-6.79,5.32-8.78,10.24-10.85,12.94-5.25,26.63-8.4,40.57-9.34"/>
          <path id="Trazado_145" data-name="Trazado 145" class="cls-1" d="M144.58,121.74c34.23-3.73,38.42,48.89,4.4,51.02-32.65,2.04-37.11-47.46-4.4-51.02"/>
        </g>
      </g>
    </g>
  </g>
</svg>