<?xml version="1.0" encoding="UTF-8"?>
<svg id="Layer_2" data-name="Layer 2" xmlns="http://www.w3.org/2000/svg" xmlns:xlink="http://www.w3.org/1999/xlink" viewBox="0 0 273.13 272.97">
  <defs>
    <style>
      .cls-1 {
        fill: #fff;
      }

      .cls-2 {
        fill: none;
      }

      .cls-3 {
        clip-path: url(#clippath);
      }
    </style>
    <clipPath id="clippath">
      <rect class="cls-2" width="273.12" height="272.96"/>
    </clipPath>
  </defs>
  <g id="Capa_3" data-name="Capa 3">
    <g id="Grupo_73" data-name="Grupo 73">
      <g class="cls-3">
        <g id="Grupo_72" data-name="Grupo 72">
          <path id="Trazado_118" data-name="Trazado 118" class="cls-1" d="M273.12,69.47v3.73c-1.33,5.19-5.84,8.95-11.19,9.32,4.99,11.39,8.37,23.42,10.05,35.75.18,3.28.56,6.55,1.14,9.79v17.05c-.59,3.24-.97,6.5-1.14,9.79-8.42,60.74-56.19,108.47-116.93,116.83-3.28.17-6.55.56-9.79,1.14-5.48-.22-11.05.32-16.51,0-18.71-1.26-36.98-6.26-53.73-14.71-2.38-1.2-13.78-7.26-14.34-9.1s-.19-4.76,1.86-5.37c3.79-1.11,9.59,3.98,13.12,5.83,96.3,50.68,207.28-30.93,187.18-137.59-2.13-10.09-5.27-19.94-9.37-29.4l-64.27-.29c-9.31-.52-14.07-7.7-9.93-16.36,1.28-2.68,12.74-19.4,12.12-20.42-50.53-30.1-115.9-13.53-146,37.01-2.33,3.92-4.41,7.99-6.23,12.17-27.81,64.64,14.91,139.26,84.6,147.26,58.3,7.08,111.3-34.45,118.38-92.75,1.46-12.03.85-24.22-1.79-36.04-.77-3.54-5.24-15.33-5.12-17.31.3-2.22,2.34-3.79,4.57-3.49.7.09,1.36.37,1.92.79,3.4,2.71,7.84,24.36,8.41,29.4,13.26,116.3-134.75,175.24-204.71,82.69C-21.57,116.55,66.48-6.45,172.56,28.07c8.07,2.99,15.94,6.51,23.55,10.54l6.66-11.94C145.45-8.47,70.5,8.07,31.91,62.34-2.39,111.09,1.2,177,40.6,221.74c1.98,2.21,11.05,10.18,11.71,11.71,1,2.01.18,4.45-1.84,5.45-.88.43-1.88.54-2.83.29-1.86-.42-11.55-10.53-13.44-12.66C-48.98,132.44,30.53-15.2,155.06,1.37c18.5,2.59,36.28,8.88,52.29,18.51,6.43-9.06,13.01-28.72,26.59-15.35l39.19,64.94ZM224.5,8.28l-38.65,62.64c-.54,2.3,1.89,3.4,3.88,3.35,23.01-1.61,48.75,2.05,71.43,0,2.56-.23,4.91-1.22,3.56-4.14l-36.96-60.51c-.71-1.08-2-1.61-3.26-1.34"/>
          <path id="Trazado_119" data-name="Trazado 119" class="cls-1" d="M139.86,84.49c17.44-.14,31.68,13.89,31.82,31.33.02,2.86-.35,5.72-1.09,8.48-.79,3.16-2.68,5.58-3.39,8.67,5.58,5.82,9.39,13.11,10.98,21.02,3.74,20.88-10.15,40.85-31.03,44.6-20.88,3.74-40.85-10.15-44.6-31.03-2.27-12.67,1.95-25.64,11.26-34.54-4.63-7.51-6.03-16.58-3.86-25.13.77-3.08,2.78-9.56,6.72-9.03,7.05.95.9,9.73.45,13.53-.54,4.15-.04,8.37,1.45,12.29.95,2.43,4.87,7.26,4.83,8.97-.06,2.53-4.34,5.2-6.07,7.17-10.98,12.77-9.53,32.03,3.24,43.01,4.01,3.45,8.86,5.8,14.05,6.81,26.97,5.13,46.84-26.13,30.08-48.17-1.44-1.89-6.83-6.14-7.14-7.79-.63-3.4,2.28-5.22,3.66-8.04,8.82-18-6.03-36.6-25.63-33.61-2.63.4-7.31,3.04-8.7-1.17-2.03-6.14,9.1-7.29,13-7.35"/>
          <path id="Trazado_120" data-name="Trazado 120" class="cls-1" d="M67.5,109.39h-9.85c-1.48-.54-2.89-1.29-4.17-2.21-5.59-4.13-6.77-12.02-2.63-17.61,1.51-2.04,3.6-3.58,5.99-4.41,8.83-1.35,17.82-1.35,26.65,0,4.58,1.31,8.01,5.13,8.81,9.83l.18,92.89c-.73,6.91-6.92,11.92-13.83,11.19-5.7-.6-10.27-4.98-11.12-10.64l-.03-79.05ZM60.99,92.49c-3.16.49-5.32,2.42-4.56,5.86,1.48,6.76,16.58-.66,18.95,6.09l.52,84.15c1.14,2.25,3.9,3.15,6.15,2.01,1.6-.81,2.57-2.48,2.5-4.27l-.13-89.87c-.32-2.62-2.57-3.75-4.98-4.07-6.14-.51-12.32-.48-18.46.09"/>
          <path id="Trazado_121" data-name="Trazado 121" class="cls-1" d="M219.32,120.04c9.74-.51,17.63,5.08,15.86,15.58-1.23,7.26-9.14,10.58-15.86,9.44,2.1,21.54-27.04,22.47-25.26.5-.67-.95-4.87-.34-6.38-.55-5.13-1.06-9.06-5.21-9.84-10.39-1.16-10.13,7.22-15.28,16.46-14.58-2.55-21.47,26.95-21.27,25.03,0M204.8,112.16c-5.21,1.55.32,14.78-5.45,15.85-3.96.74-13.89-2.05-13.61,5.05s11.24,1.89,14.99,5.3c4.02,3.64-2.12,16.07,6.63,15.26,6.58-.61,2.4-12.17,4.74-15,3.42-4.14,16.28,2.36,15.27-6.63-.83-7.32-15-1-16-6.38-.74-3.96,2.11-16.04-6.56-13.45"/>
          <path id="Trazado_122" data-name="Trazado 122" class="cls-1" d="M138.23,139.36c25.62-2.73,33.01,35.85,7.06,42.2-29.1,7.13-37.18-38.99-7.06-42.2M138.76,147.33c-20.19,2.41-11.84,34.32,7.41,25.52,13.42-6.14,7.45-27.29-7.41-25.52"/>
          <path id="Trazado_123" data-name="Trazado 123" class="cls-1" d="M139.32,101.52c18.24-1.29,20.73,26.31,3.52,28.59-20.56,2.72-22.61-27.24-3.52-28.59M139.81,109.51c-8.09.72-7.89,14.24,1.98,12.63,7.18-1.17,6-13.34-1.98-12.63"/>
          <path id="Trazado_124" data-name="Trazado 124" class="cls-1" d="M223.96,22.7c2.13-.77,4.48.34,5.25,2.47.16.45.24.92.24,1.4.53,7.26.52,14.55-.04,21.81-.28,2.19-2.28,3.74-4.47,3.47-1.99-.25-3.49-1.95-3.5-3.96-.52-7.45-.51-14.92.02-22.36.44-1.23,1.33-2.25,2.49-2.84"/>
          <path id="Trazado_125" data-name="Trazado 125" class="cls-1" d="M228.25,59.47c3.63,3.36-1.65,9.45-5.71,5.97-3.94-3.39,1.98-9.41,5.71-5.97"/>
        </g>
      </g>
    </g>
  </g>
</svg>