<?xml version="1.0" encoding="UTF-8"?>
<svg id="Layer_2" data-name="Layer 2" xmlns="http://www.w3.org/2000/svg" xmlns:xlink="http://www.w3.org/1999/xlink" viewBox="0 0 338.01 337.6">
  <defs>
    <style>
      .cls-1 {
        fill: #fff;
      }

      .cls-2 {
        fill: none;
      }

      .cls-3 {
        clip-path: url(#clippath);
      }
    </style>
    <clipPath id="clippath">
      <rect class="cls-2" x="0" width="338" height="337.6"/>
    </clipPath>
  </defs>
  <g id="Capa_3" data-name="Capa 3">
    <g id="Grupo_77" data-name="Grupo 77">
      <g class="cls-3">
        <g id="Grupo_76" data-name="Grupo 76">
          <path id="Trazado_135" data-name="Trazado 135" class="cls-1" d="M240.32,0c2.64.62,5.22,1.47,7.71,2.53,4.2,2.07,21.94,14.58,24.25,18,8.95,13.18-4.3,22.73-9.47,33.55l22.22,15.14c30.9-9.68,60.38,17.28,51.3,48.97-9.59,33.47-56.93,37.83-72.8,6.81-2.75-6.01-4.34-12.48-4.69-19.07-6.48-3.16-14.44-11.77-20.69-14.29-2.5-1.01-2.87.67-2.14,2.79,5.81,16.64,15.73,33.61,21.12,50.18,2.91,7.97,2.74,16.73-.48,24.58-32.41,46.31-63.02,96.17-96.97,141.28-24.86,33.04-58.96,34.29-92.08,12.48-21.99-14.48-56.03-34.03-64.38-59.7-1.45-4.46-2.02-9.18-3.11-13.72.27-4.06-.37-8.53,0-12.54,1.31-9.06,4.35-17.78,8.96-25.69,31.62-43.61,60.28-89.52,92.12-132.93,17.81-24.29,25.15-19.81,52.97-18.91,9.5.32,18.93.39,28.42.61,2.1.05,4.19,1.35,6.23.35L225.81,7.61c3.27-4.44,8.34-7.22,13.84-7.61h.66ZM237.48,12.02c-1.22.36-5.81,5.53-4.78,7.13l27.42,18.18c2.29-3.74,5.74-6.58,2.33-10.97-3.56-4.58-15.22-9.37-19.66-13.98-1.69-.66-3.54-.79-5.3-.36M225.56,28.47l-25.48,36.5,27.29,18.81,25.44-36.5-27.25-18.81ZM261.42,93.74c2.5-7.05,6.83-13.31,12.54-18.15l-18.05-12.18-12.25,18.05,17.76,12.27ZM133.2,69.56c-9.91.36-14.39,3.97-20.12,11.42-33.32,43.39-61.93,92.89-94.77,136.91-12.33,21.08-7.92,47.95,10.49,63.99,35.11,22.27,74.62,68.83,116.16,29.05,30.99-46.55,67.5-91.88,97.21-139.09,5.19-8.25,7.37-13.34,4.38-23.28-5.2-17.29-16.34-36.53-23.05-53.5l-33.15-22.94c-18.57-.05-38.75-3.22-57.15-2.54M294.94,78.74c-35.88,4.27-30.55,60.37,7.66,55.85,35.48-4.2,29.78-60.31-7.66-55.85"/>
          <path id="Trazado_136" data-name="Trazado 136" class="cls-1" d="M147.12,188.3c35.36-4.84,38.87,42.8,11.39,58.92-26.25,15.4-49.44-7.07-39.27-34.66,3.99-10.83,16.15-22.66,27.88-24.26M149.1,199.53c-13.49,1.93-25.76,21.08-19.55,33.74,9.97,20.35,42.58-2.84,35.2-24.65-2.1-6.6-8.87-10.53-15.65-9.09"/>
          <path id="Trazado_137" data-name="Trazado 137" class="cls-1" d="M103.59,155.98c12.03-1.06,23.05,6.75,26.04,18.45,1.35,4.88,3.08,17.22-5.61,15.56-5.95-1.14-3.92-5.95-4.51-10.05-1.81-12.59-13.95-15.59-24.15-9.75-17.05,9.73-20.23,41.82,4.03,38.35,3.73-.53,7.53-4.39,10.95.37,4.58,6.37-4.53,10.18-9.63,10.85-43.47,5.74-36.8-60.85,2.89-63.78"/>
          <path id="Trazado_138" data-name="Trazado 138" class="cls-1" d="M188.85,187.48l15.83,11.54c4.03,5.53-1.58,11.17-7.49,8.15l-23.96-16.63c-5.25-5.43,3.44-13.22,8.84-14.14,8.14-1.39,18.81.15,26.91-.8,9.42-1.11,6.51-17.13-4.34-14.91-4.68.95-9.01,10.07-14.14,4.32-5.22-5.86,4.87-13.49,10.07-14.98,10.36-3.16,21.33,2.69,24.48,13.05,1.44,4.73,1.04,9.83-1.12,14.28-6.71,13.6-22.78,8.37-35.09,10.12"/>
          <path id="Trazado_139" data-name="Trazado 139" class="cls-1" d="M129.27,81.33c8.5-1.89,21.79,1.23,30.74.66,4.65,1.58,6.25,7.19,1.76,10.07-5.28,3.38-22.15-1.5-29,.69l-16.9,24.02c-1.99,2.41-5.56,2.76-7.97.77-2.04-1.68-2.64-4.54-1.46-6.9,5.41-8.94,11.34-17.56,17.75-25.81,1.43-1.51,3.16-2.7,5.09-3.5"/>
          <path id="Trazado_140" data-name="Trazado 140" class="cls-1" d="M307.45,87.27c3.18-.24,5.94,2.15,6.18,5.32.06.85-.06,1.7-.37,2.49-3.46,5.84-7.43,11.36-11.87,16.5-5,2.86-10.13-1.97-7.78-7.78.43-1.06,9.39-13.81,10.35-14.72.94-.96,2.15-1.59,3.47-1.81"/>
        </g>
      </g>
    </g>
  </g>
</svg>