<?xml version="1.0" encoding="UTF-8"?>
<svg id="Layer_2" data-name="Layer 2" xmlns="http://www.w3.org/2000/svg" xmlns:xlink="http://www.w3.org/1999/xlink" viewBox="0 0 329.33 190.86">
  <defs>
    <style>
      .cls-1 {
        fill: none;
      }

      .cls-2 {
        fill: #f2f2f2;
      }

      .cls-3 {
        clip-path: url(#clippath);
      }
    </style>
    <clipPath id="clippath">
      <rect class="cls-1" y="0" width="329.33" height="190.84"/>
    </clipPath>
  </defs>
  <g id="Capa_3" data-name="Capa 3">
    <g id="Grupo_70" data-name="Grupo 70">
      <g class="cls-3">
        <g id="Grupo_69" data-name="Grupo 69">
          <path id="Trazado_112" data-name="Trazado 112" class="cls-2" d="M0,162.58c.7-.75.9-1.83,1.58-2.6,2.61-2.99,16.15-5.26,20.93-6.73,27.9-8.58,54.7-21.16,77.2-39.87,7-5.82,11.64-11.55,19.92-16.1,4.53-2.49,11.6-6.73,15.08-.26,3.79,7.07-4.93,9.72-8.84,12.3-13.62,8.97-22.42,19.51-21.68,36.87.75,18,10.63,28.59,28.62,29.91,9.01.66,13.82.34,20.62-5.8,6.75-5.64,9.31-14.87,6.42-23.18-1.45-5.55-10.16-15.84-1.34-19.34,10.42-4.13,14.57,16.73,16.42,23.56,11.53,1.86,23.62,3.64,35.14.97.74-5.68,2.07-20.54,7.03-23.85,3.11-2.12,7.34-1.32,9.46,1.79.63.92,1.02,1.99,1.14,3.1.27,2.73-3.47,12.24-3.84,16.67-.95,11.6,2.4,22.01,14.14,26.04-1.66-16.64,5.73-11.93,15.79-16.06,34.47-14.18-7.06-82.97,36.59-86.23,5.41-.4,11.31.42,16.73.02,6.34-.46,10.48-.74,7.53-8.17-4.15-10.42-25.89-24.06-36.16-28.16-3.81-1.52-12.09-2.84-14.47-4.83-4.56-3.82-1-7.16-.91-11.26.26-11.02-15.9-9.64-14.17,1.25.95,5.93,10.61,5.14,9.49,12.74-.5,3.41-3.46,4.94-4.92,7.35-9.79,16.12-11.45,37.05-17.3,54.74-4.15,12.54-8.57,18.08-22.48,12.49-14.13-5.68-19.26-11.61-36.52-12.36-5.19-.22-12.04,1.46-16.6.52-3.65-.69-6.05-4.21-5.36-7.85.51-2.72,2.64-4.84,5.36-5.36,13.1-1.85,26.45-.81,39.11,3.04,7.81,2.53,14.48,7.68,22.16,10.32,6.54-20.67,8.67-43.17,19.8-62.08-18.95-19.67,7.13-48.26,28.12-30.7,19.49-15.79,45.21,6.28,31.33,27.64l-.05,1.38c13.43,7.75,36.14,27.3,25.43,44.55-7.48,12.05-24.56,6.88-36.04,8.34-4.56.06-8.2,3.81-8.14,8.37,0,.08,0,.15,0,.23-1.8,20.49,4.68,44.23-6.78,62.69-5.5,8.42-14.19,14.25-24.07,16.14-.2,1.23.51,1.72,1.61,1.92,4.88.89,15.96-2.6,17.55,4.32,1.26,5.53-2.05,8.66-7.26,9.19-9.93.83-19.93.47-29.78-1.08-9.73-2.5-18.7-12.63-21.67-22.07-1.39-1.68-5.68-.03-7.7.03-10.3.2-20.59-.42-30.79-1.87l-6.86,10.84h12.54c3.36.36,6.09,2.86,6.74,6.17.69,5.89-4.44,7.63-9.29,8-14.76,1.15-50.34,1.11-63.18-5.05-7.46-4.03-13.65-10.05-17.88-17.4-24.48,12.84-53.05,15.47-79.46,7.29-4.72-1.38-9.3-3.2-13.68-5.44-1.05-.84-1.23-2.47-2.41-3.24v-3.86ZM289.23,15.5c-5.2-4.96-14.91,1.51-11.68,6.87,3.07,1.58,6.25,2.94,9.5,4.07,4.8,1.18,5.75-7.55,2.21-10.94M90.7,137.5l-24.21,13.42-34.32,14.22c18.94,2.77,38.28-.17,55.54-8.45,5.74-2.89,3.13-2.73,2.96-7.92-.12-3.75.15-7.53.02-11.28"/>
          <path id="Trazado_113" data-name="Trazado 113" class="cls-2" d="M271.6,55.67c2.8,3.11,3.94-3.87,5-5.33,2.32-2.94,6.58-3.45,9.52-1.13,1.71,1.35,2.67,3.45,2.58,5.63.21,16.71-25.35,21.43-30.44,4.2-3.37-11.42,8.42-14.91,12.05-7.55.59,1.2.57,3.38,1.29,4.18"/>
          <path id="Trazado_114" data-name="Trazado 114" class="cls-2" d="M142.62,88.1c3.54-1.34,7.5.45,8.85,3.99s-.45,7.5-3.99,8.85c-.62.24-1.28.38-1.94.43-8.79.99-10.08-11.61-2.91-13.26"/>
        </g>
      </g>
    </g>
  </g>
</svg>