<?xml version="1.0" encoding="UTF-8"?>
<svg id="Layer_2" data-name="Layer 2" xmlns="http://www.w3.org/2000/svg" xmlns:xlink="http://www.w3.org/1999/xlink" viewBox="0 0 262.78 280.3">
  <defs>
    <style>
      .cls-1 {
        fill: #fff;
      }

      .cls-2 {
        fill: none;
      }

      .cls-3 {
        clip-path: url(#clippath);
      }
    </style>
    <clipPath id="clippath">
      <rect class="cls-2" y="0" width="262.78" height="280.29"/>
    </clipPath>
  </defs>
  <g id="Capa_3" data-name="Capa 3">
    <g id="Grupo_43" data-name="Grupo 43">
      <g class="cls-3">
        <g id="Grupo_42" data-name="Grupo 42">
          <path id="Trazado_71" data-name="Trazado 71" class="cls-1" d="M41.62.18c5.59,1.07,10.88,3.34,15.51,6.66,12.31,9.51,16.43,26.26,9.93,40.4l72.28,72.19c9.01,11.33-4.2,24.87-15.89,15.34-7.94-6.47-15.06-16.21-22.98-22.97-11.87,9.03-26.15,14.35-41.03,15.32-8.87.55-19.26-.99-27.88.04-5.42.6-9.56,5.13-9.66,10.59v109.45c-.17,6.02,4.58,11.04,10.6,11.21.03,0,.05,0,.08,0h197.64c6.02-.12,10.8-5.1,10.68-11.13,0-.03,0-.05,0-.08V50.76c.18-5.86-4.31-10.8-10.16-11.18l-89.7.05c-14.66,1.94-5.24,17.49-14.6,23.7-5.14,3.32-12,1.85-15.32-3.29-.76-1.17-1.28-2.47-1.56-3.83-2.65-18.52,10.21-35.68,28.73-38.33.53-.08,1.05-.14,1.58-.19,30.04-2.36,63.19,1.75,93.56.09,15.7,1.91,27.93,14.52,29.36,30.27v201.89c-1.43,15.75-13.66,28.37-29.36,30.27l-202.49.09c-15.82-1.11-28.67-13.19-30.75-28.91l-.17-115.84c1.12-12.32,8.91-23.03,20.28-27.88,11.39-4.56,25.4-1.68,37.51-2.45,9.59-.73,18.88-3.74,27.07-8.78l-33.4-33.64C23.87,75.21-5.02,47.93,7.21,19.68,12.05,9.36,21.63,2.08,32.86.18c2.91-.24,5.84-.24,8.76,0M35.47,22.21c-13.37,1.79-11.7,23.07,3.08,21.68,13.95-1.31,12.33-23.73-3.08-21.68"/>
          <path id="Trazado_72" data-name="Trazado 72" class="cls-1" d="M197.08,214.62v-12.85c.79-3.45,3.05-6.39,6.19-8.04,5.47-2.62,12.03-.3,14.65,5.17.67,1.4,1.04,2.93,1.07,4.48.53,7.65.52,15.33-.03,22.99-.35,5.44-4.68,9.78-10.13,10.12-7.66.55-15.34.56-23,.03-6.06-.13-10.87-5.16-10.73-11.22.03-1.56.4-3.09,1.07-4.49,1.65-3.14,4.58-5.4,8.04-6.19h12.86Z"/>
          <path id="Trazado_73" data-name="Trazado 73" class="cls-1" d="M206.25,61.6c5.89-1.06,11.52,2.86,12.57,8.75.1.58.16,1.17.17,1.75.41,4.74.59,22.34-.71,26.13-3.59,10.5-20.12,9.11-21.22-3.67-.41-4.74-.59-22.34.71-26.13,1.38-3.64,4.63-6.26,8.48-6.84"/>
          <path id="Trazado_74" data-name="Trazado 74" class="cls-1" d="M206.25,127.24c5.89-1.06,11.52,2.86,12.57,8.75.1.58.16,1.17.17,1.75.41,4.74.59,22.34-.71,26.13-3.59,10.5-20.12,9.11-21.22-3.67-.41-4.74-.59-22.34.71-26.13,1.38-3.65,4.63-6.26,8.48-6.84"/>
          <path id="Trazado_75" data-name="Trazado 75" class="cls-1" d="M52.99,214.77c7.97-.69,15.98-.74,23.96-.16,6.05.17,10.82,5.22,10.64,11.27-.16,5.42-4.25,9.91-9.63,10.57-7.82.61-15.67.63-23.5.08-6.05-.18-10.81-5.23-10.63-11.28.16-5.23,3.99-9.62,9.15-10.48"/>
          <path id="Trazado_76" data-name="Trazado 76" class="cls-1" d="M118.67,214.77c7.97-.69,15.98-.74,23.96-.16,6.05.17,10.82,5.22,10.64,11.27-.16,5.42-4.25,9.91-9.63,10.57-7.82.61-15.67.63-23.5.08-6.05-.18-10.81-5.23-10.63-11.28.16-5.23,3.99-9.62,9.15-10.48"/>
        </g>
      </g>
    </g>
  </g>
</svg>