<?xml version="1.0" encoding="UTF-8"?>
<svg id="Layer_2" data-name="Layer 2" xmlns="http://www.w3.org/2000/svg" xmlns:xlink="http://www.w3.org/1999/xlink" viewBox="0 0 217.26 283.11">
  <defs>
    <style>
      .cls-1 {
        fill: #fff;
      }

      .cls-2 {
        fill: none;
      }

      .cls-3 {
        clip-path: url(#clippath);
      }
    </style>
    <clipPath id="clippath">
      <rect class="cls-2" width="217.26" height="283.11"/>
    </clipPath>
  </defs>
  <g id="Capa_3" data-name="Capa 3">
    <g id="Grupo_81" data-name="Grupo 81">
      <g class="cls-3">
        <g id="Grupo_80" data-name="Grupo 80">
          <path id="Trazado_146" data-name="Trazado 146" class="cls-1" d="M115.8,0c44.46,4.34,76.99,43.91,72.65,88.37-.08.84-.18,1.68-.29,2.52-.55,4.31-3.16,11.07-3.27,14.47-.09,2.4,2.21,6.57,2.87,9.31,4.6,19.48-6.79,38.47-26.97,41.2-2.75.38-6.5-.82-8.53,1.44-2.08,2.34-.76,9.85-1.1,13.28-.55,7.45-6.61,13.29-14.08,13.58-18.38-1.08-38.25,1.37-56.45,0-7.69.03-14.08-5.91-14.63-13.58-.34-3.5,1.11-11.33-1.38-13.56-1.6-1.43-9.3-1.79-12.31-2.61-17.31-4.99-27.47-22.89-22.88-40.31.7-2.76,2.96-6.23,2.87-8.76-.12-3.32-2.73-9.82-3.28-13.89C22.96,46.42,56.43,3.69,101.98,0h13.82ZM103.53,9.56c-39.28,3.1-68.6,37.46-65.5,76.73.11,1.35.25,2.7.44,4.04.79,5.79,4.01,12.57,3.11,18.19-.57,3.56-3.24,7.13-3.68,11.25-1.18,10.53,4.72,20.57,14.5,24.65,6.92,2.77,15.23.6,20.28,7.37,4.74,6.34,1.7,12,2.9,18.67.58,3.25,2.66,4.02,5.66,4.3,17.77,1.66,38.24-1.18,56.3-.15,6.69-1.2,3.63-11.64,4.33-16.69,1.03-5.24,4.89-9.48,10.01-11.01,2.94-.36,5.9-.53,8.87-.53,14.02-1.66,20.92-16.97,17.87-29.72-.63-2.67-2.53-5.56-2.92-8.13-.82-5.11,1.55-9.95,2.46-14.97,7.32-38.47-17.94-75.59-56.41-82.91-5.99-1.14-12.1-1.5-18.18-1.08"/>
          <path id="Trazado_147" data-name="Trazado 147" class="cls-1" d="M147.88,228.38l15.7,6.02c6.44-8.51,18.56-10.19,27.07-3.75s10.19,18.56,3.75,27.07c-.44.58-.92,1.14-1.42,1.67-.54.66-1.84.95-1.97,1.46-1.16,4.74.57,6.95-2.66,12.7-10.33,18.37-38.35,8.1-35.55-12.47l-44.44-17.25-43.91,17.25c2.98,21.86-27.68,30.88-36.49,10.64-2.06-4.74-.84-7.26-1.73-10.86-.13-.52-1.43-.81-1.97-1.46-17.57-21.29,12.31-45.7,29.39-24.99l16.25-6.56-34.57-13.82c-2.15,1.15-3.37,3.04-5.5,4.42-8.91,5.81-20.84,3.31-26.66-5.6-3.85-5.91-4.17-13.45-.83-19.66,1.04-1.99,4.7-5.21,4.96-6.1.52-1.77-.04-4.56.36-6.82,3.59-19.98,34.83-20.08,37.89,1.41.26,1.79-.75,4.59.88,5.75l62.37,24.75,61.97-24.77c1.63-1.17.63-3.96.88-5.75,1.63-10.56,11.51-17.8,22.07-16.17,5.28.82,9.98,3.77,13,8.18,3.87,5.51,1.84,8.87,3.19,13.4.3.99,2.6,2.64,3.43,3.75,12.92,17.51-8.99,39.97-26.74,27.29-1.51-1.08-3.39-4.28-5.15-4.03l-32.32,13.08-1.27,1.21ZM181.78,255.65c1.21-1.32,3.88-2.19,5.37-4.31,3.07-4.41,1.98-10.47-2.43-13.54-4.31-3-10.22-2.03-13.35,2.17-2.6,2.99-2.12,5.94-7.6,4.86l-125.37-50.46c-4.64-2.5-2.53-4.79-2.21-8.29.95-5.32-2.6-10.41-7.92-11.36-3.94-.7-7.91,1.07-10.03,4.47-3.22,4.95.43,8.78-1.12,12.13-1.17,2.54-3.51,2.53-5.27,4.71-3.5,4.14-2.99,10.34,1.15,13.84,2.98,2.52,7.17,3.04,10.68,1.32,4.8-2.23,4.2-8.11,9.76-8l126.27,50.71c5.63,2.14,2.11,6.63,2.1,10.16-.03,11.87,18.26,13.46,19.77,1.05.43-3.5-2.38-6.63.21-9.47M121.34,217.87l13.85,4.74,48.94-19.67c5.08.24,4.79,5.41,8.35,7.64,4.57,2.93,10.65,1.61,13.59-2.96,2.39-3.72,2-8.58-.96-11.88-2.56-2.78-5.42-2-5.31-6.91.32-1.83.52-3.67.6-5.53-.95-11.68-20.64-12.2-19.36,2.77.25,2.93,2.14,4.98-1.11,7.73l-58.58,24.07ZM95.36,237.79l-12.93-4.42-28.55,11.34c-7.45,1.71-5.86-4.82-10.88-7.38-4.78-2.62-10.77-.87-13.39,3.91-1.96,3.58-1.51,8,1.13,11.12,1.17,1.33,2.88,1.85,4.09,3.1,3.34,3.45.51,5.19.79,9.14.86,11.98,18.77,11.82,19.4.03.18-3.4-2.21-7.7,1.11-9.93l38.52-15.67.72-1.23Z"/>
          <path id="Trazado_148" data-name="Trazado 148" class="cls-1" d="M72.55,80.34c18.92-2.26,39.23,17.71,27.88,36.73-10.1,16.92-41.01,11.95-47.13-6.17-4.07-12.24,2.55-25.47,14.8-29.55,1.45-.48,2.95-.82,4.46-1.01M73.65,89.73c-4.56.69-8.52,3.5-10.67,7.58-10.42,21.83,33.65,29.83,31.26,6.38-.82-8.05-12.96-14.94-20.6-13.95"/>
          <path id="Trazado_149" data-name="Trazado 149" class="cls-1" d="M138.36,80.34c31.33-3.76,38.16,43.26,3.1,46.78-37.21,3.73-35.68-42.87-3.1-46.78M139.45,89.73c-8.21,1.07-17.63,8.81-16.42,17.78,2.13,15.63,29.7,12.17,32.33-.75,1.73-7.58-3.01-15.12-10.59-16.85-1.75-.4-3.56-.46-5.34-.18"/>
          <path id="Trazado_150" data-name="Trazado 150" class="cls-1" d="M107.96,127.31c3.49-.03,6.87,1.21,9.52,3.47,4.51,4.6,8.55,9.65,12.04,15.06,3.05,6.96-.13,15.07-7.08,18.12-3.11,1.36-6.61,1.52-9.83.46-1.24-.36-3.26-1.78-4.17-1.71-.71.06-2.96,1.44-4.24,1.82-7.29,2.14-14.93-2.04-17.07-9.33-.95-3.23-.68-6.7.76-9.75,1.48-3.23,12.08-15.55,15.21-16.87,1.56-.63,3.2-1.05,4.87-1.26M107.36,137.26c-.55.13-1.05.39-1.48.75-.7.57-8.97,10.37-9.36,11.1-1.22,2.06-.55,4.71,1.51,5.94.04.02.07.04.11.06,3.71,2.43,6.26-2.71,10.29-2.82,4.5-.13,7.02,5.47,10.98,2.58,1.94-1.29,2.47-3.92,1.18-5.86-.04-.06-.09-.13-.13-.19-.57-.99-8.25-10.1-9.11-10.8-1.14-.86-2.62-1.14-3.99-.75"/>
        </g>
      </g>
    </g>
  </g>
</svg>