<?xml version="1.0" encoding="UTF-8"?>
<svg id="Layer_2" data-name="Layer 2" xmlns="http://www.w3.org/2000/svg" xmlns:xlink="http://www.w3.org/1999/xlink" viewBox="0 0 316.07 257.93">
  <defs>
    <style>
      .cls-1 {
        fill: none;
      }

      .cls-2 {
        fill: #f2f2f2;
      }

      .cls-3 {
        clip-path: url(#clippath);
      }
    </style>
    <clipPath id="clippath">
      <rect class="cls-1" y="0" width="316.07" height="257.88"/>
    </clipPath>
  </defs>
  <g id="Capa_3" data-name="Capa 3">
    <g id="Grupo_34" data-name="Grupo 34">
      <g class="cls-3">
        <g id="Grupo_33" data-name="Grupo 33">
          <path id="Trazado_53" data-name="Trazado 53" class="cls-2" d="M316.07,142.39c-1.24,13.1-4.26,25.96-8.97,38.25-2.46,6.47-5.56,12.67-9.26,18.51-2.14,2.76-6.1,3.26-8.86,1.13-1.71-1.32-2.62-3.42-2.42-5.57.32-2.66,6.48-12.55,8.02-16.1,9.53-21.81,11.68-46.14,6.12-69.28-21.68-6.25-46.44-3.4-67.31,5.01-47.79,19.69-75.86,69.57-67.91,120.64l61.09-60.8c6.54-6.76,15.56.4,9.88,8.03l-61.72,62.03c19.61,2.97,39.66.79,58.17-6.32,7.13-2.76,13.51-6.81,20.57-9.68,3.48-.06,6.34,2.71,6.4,6.19.03,1.55-.52,3.06-1.54,4.23-1.79,2.18-12.76,7.39-15.91,8.77-22.88,9.93-48.2,12.83-72.74,8.35-2.9-.5-9.91-2.95-11.87-2.86-4.84.22-14.21,3.63-20.43,4.28C69.38,264.63,8.2,215.54.75,147.53c-1.32-12.05-.86-24.22,1.35-36.13.51-2.78,1.97-10.56,3.81-12.24,2.4-2.18,17.68-4.49,21.63-4.91,22.51-2.29,45.21,1.54,65.72,11.1.73-40.27,21.02-77.66,54.37-100.24,9.4-6.18,9.62-7.07,19.41-.99,34.31,22.34,55.25,60.29,55.85,101.23,25.43-11.91,54.15-14.85,81.46-8.34,7.93,2.07,7.37,3.59,9.07,11.3,1.27,5.74,2.15,11.55,2.65,17.41v16.67ZM151.9,162.75v-44.13c0-1.56,4.01-4.59,5.88-4.67,2.17-.09,6.47,2.84,6.47,4.67v44.13l9.37-15.61c9.8-13.95,22.25-25.83,36.63-34.98,2.03-40.02-18.09-77.91-52.38-98.64-33.26,20.27-54.51,59.36-51.94,98.62,14.52,9.22,27.05,21.24,36.85,35.36l9.13,15.24ZM150.66,234.96c7.12-46.17-15.08-91.92-55.74-114.9-23.32-12.97-53.63-18.03-79.47-10.74-6.93,29.57-1.42,60.69,15.22,86.09,24.26,36.44,67.47,55.49,110.73,48.8l-61.98-62.37c-5.18-7.66,4.42-14.41,10.46-7.38l60.77,60.49Z"/>
          <path id="Trazado_54" data-name="Trazado 54" class="cls-2" d="M280.07,212.93c5.72,6.15-4.33,14.62-9.34,8.41-2.17-2.72-1.72-6.68,1-8.85,2.49-1.98,6.07-1.8,8.34.43"/>
        </g>
      </g>
    </g>
  </g>
</svg>