<?xml version="1.0" encoding="UTF-8"?>
<svg id="Layer_2" data-name="Layer 2" xmlns="http://www.w3.org/2000/svg" viewBox="0 0 384 315.86">
  <defs>
    <style>
      .cls-1 {
        fill: #fff;
      }
    </style>
  </defs>
  <g id="Capa_3" data-name="Capa 3">
    <g>
      <path class="cls-1" d="M0,83.85c1.97-6.53,5.11-12.51,11.12-16.2,1.23-.76,6.93-3.26,7.97-3.26h24.69l1.12-1.12V8.63C44.9,5.52,51.57-.12,54.98,0l137.36.36c2.64.38,8.21,6.02,8.21,8.26v54.64l1.12,1.12h24.69c1.22,0,7.06,2.67,8.42,3.56,8.52,5.56,11.75,15.81,10.66,25.64l99.57.33,3.32,2.67.37,59.48c-1.13,3.62-5.92,5.57-8.94,2.99-.41-.35-2.27-3.5-2.27-3.72v-50.53h-35.92v25.82c0,1.52-3.21,6.24-4.67,7.31-5.02,3.66-21.48,3.79-26.97,1.13-2.03-.98-6.53-6.31-6.53-8.44v-25.82h-35.92v107.04h110v-36.3c0-3.38,4.99-5.97,8.22-4.48.39.18,3.01,2.77,3.01,2.98v37.8h28.81c.43,0,4,1.72,4.47,2.26,1.07,1.22,1.04,2.57,1.17,4.06,2.65,29.25-2.06,62.45-.02,92.12-.07,2.59-1.8,4.76-4.29,5.44l-356.74.12c-2.79-.41-4.85-2.72-4.92-5.55l.02-139.25c-.37-1.98-4.53-3.35-6.35-4.88-5.97-5.03-8.65-10.56-10.87-17.95v-20.96c3.08-4.85,10.49-4.46,11.26,1.84,1.2,9.75-2.92,18.67,5.17,27.01,10.63,10.94,30.71,2.61,30.71-12.01v-68.49h-27.31c-1.08,0-5.55,3.71-6.36,4.86-4.38,6.17-1.34,19.32-2.22,26.97-.77,6.64-8.1,7.13-11.24,1.85v-25.45ZM189.32,11.25H56.12v53.15h133.2V11.25ZM93.54,75.62h-35.17v72.23c0,.5,2.13,4.78,2.67,5.57,7.27,10.63,23.92,10.33,30.29-1.05.39-.69,2.22-4.98,2.22-5.27v-71.49ZM140.68,75.62h-35.92v69.99c0,.44,1.72,5.31,2.11,6.12,5.98,12.4,25.72,12.38,31.7,0,.39-.81,2.11-5.68,2.11-6.12v-69.99ZM187.08,75.62h-35.17v71.49c0,.29,1.83,4.57,2.22,5.27,6.36,11.38,23.01,11.68,30.29,1.05.53-.78,2.67-5.06,2.67-5.57v-72.23ZM234.22,93.59c.23-6.22.55-11.65-4.87-15.72-.56-.42-3.52-2.25-3.74-2.25h-27.31v68.49c0,.42,1.06,4.66,1.33,5.41,2.35,6.62,9.4,12.01,16.63,11.43v-63.25c0-.88,3.24-4.12,4.12-4.12h13.84ZM290.34,104.81h-15.71v23.58l1.12,1.12h13.47l1.12-1.12v-23.58ZM28.44,172.18v132.49h124.97v-64c0-1.08,3.71-5.55,4.86-6.37,5.99-4.26,16.5-1.43,23.58-2.24v-15.35c0-1.36,4.17-4.87,5.61-4.87h28.81v-38.55c-1.56-1.75-4.25-.95-6.63-1.6-6.38-1.74-12.46-5.23-16.2-10.75-.77-.19-5.38,5.04-6.73,5.99-13.09,9.29-30.49,6.37-40.41-5.98-12.48,15.17-34.66,15.17-47.14,0-9.42,12.14-27.95,15.41-40.41,5.97-1.35-1.02-5.49-6.29-6.71-5.99-5.25,7.32-14.44,11.98-23.59,11.23ZM251.43,223.08v17.59c0,3.27-3.31,8.03-6.44,9.28s-15.11,1.34-18.46.65c-2.4-.49-7.28-4.69-7.28-6.94v-19.46l-1.12-1.12h-23.95l-1.12,1.12v80.47h83.81v-81.59h-25.44ZM240.21,239.55v-15.35c-2.38-2.25-6.62-.69-9.73-1.12v16.47h9.73ZM346.47,223.08v16.84c0,4.44-4.02,10.09-8.65,10.81-2.94.45-13.41.45-16.24-.12-2.4-.49-7.28-4.69-7.28-6.94v-19.46l-1.12-1.12h-23.95l-1.12,1.12v80.47h83.81v-81.59h-25.44ZM334.49,223.08h-8.98v16.47h8.98v-16.47ZM181.84,243.29h-17.21v61.38h17.21v-61.38Z"/>
      <path class="cls-1" d="M135.44,267.25v-65.12H48.64v65.12h49.01c3.98,0,6.82,10-.79,11.18-15.71-1.15-33.94,1.7-49.35.05-5.65-.6-9.59-4.34-10.14-10.07-2.09-21.7,1.6-46.79.09-68.85,1.7-6.07,5.51-8.24,11.52-8.69,28-2.08,58.56,1.63,86.84.03,7.05.97,10.29,5.5,10.87,12.33,1.38,16.12,1.38,46.8,0,62.93-.5,5.83-3.35,11.1-9.56,12.14-3.73.63-16.27.71-19.98.14-7.61-1.19-4.77-11.18-.79-11.18h19.08Z"/>
      <path class="cls-1" d="M87.34,21.89l69.45-.17c7.25.72,6.38,10.83-.75,11.26-21.01-1.85-46.12,2.41-66.63,0-7.26-.85-7.38-9.87-2.07-11.08Z"/>
      <path class="cls-1" d="M87.34,42.85l69.45-.17c7.25.72,6.38,10.83-.75,11.26-21.01-1.85-46.12,2.41-66.63,0-7.26-.85-7.38-9.87-2.07-11.08Z"/>
    </g>
  </g>
</svg>