<?xml version="1.0" encoding="UTF-8"?>
<svg id="Layer_2" data-name="Layer 2" xmlns="http://www.w3.org/2000/svg" viewBox="0 0 383.18 378.6">
  <defs>
    <style>
      .cls-1 {
        fill: #fff;
      }
    </style>
  </defs>
  <g id="Capa_3" data-name="Capa 3">
    <g>
      <path class="cls-1" d="M.2,29.93C2.12,14.57,15.95,1.45,31.34.08l189.18-.08c26.33,2.21,40.72,31.93,25.82,53.88h63.97c17.55,0,31.73,21.09,30.21,37.71-1.28,13.99-15.47,31.15-30.21,31.15h-23.57c1.05,1.25,2.52,5.34,3.5,6.04,2.35,1.66,14.35,4.94,18.46,6.79,71.19,32,96.62,121.68,53.02,186.82s-142.67,75.21-198.96,16.08l-91.03-.24c-23.91-2.65-38.35-27.85-27.53-49.82,2.41-4.9,6.01-7.45,9.06-11.74-14.23-12.33-17.22-32.36-5.49-47.57,1.04-1.35,5.7-5.17,5.49-6.32-14.23-12.33-17.22-32.35-5.49-47.57,1.04-1.35,5.7-5.17,5.49-6.32-17.38-14.35-16.76-41.57,1.6-54.7,3.32-2.38,12.15-6.41,16.04-6.41h23.57c-8.03-11.44-8.06-27.44,0-38.92H30.5C16.4,68.85,1.88,52.29.2,38.91c-.26-2.09-.26-6.89,0-8.98ZM31.44,15.15c-22.34,4.7-21.33,35.48,1.31,38.72h187.02c23.44-3.45,23.29-35.54,0-38.91l-188.33.19ZM119.72,69.05c-22.34,4.7-21.33,35.48,1.31,38.72h187.02c23.44-3.45,23.29-35.54,0-38.91l-188.33.19ZM261.68,122.75H71.65c-3.33,0-9.91,4.78-11.99,7.47-9.77,12.64-1.38,30.14,14.21,31.48,28.67,2.48,60.81-1.95,89.85.02l2.56-.43c26.04-25.83,62-38.98,98.77-37.05.22-.77-3.04-1.45-3.36-1.49ZM176.27,330.58c62.56,62.83,171.21,31.38,189.4-55.12,20.75-98.68-87.62-173.13-171.94-117.39-58.41,38.61-66.98,122.77-17.46,172.51ZM152.82,176.64h-81.17c-3.33,0-9.91,4.78-11.99,7.47-9.77,12.64-1.38,30.13,14.21,31.48,18.88,1.63,40.03-1.32,59.16.03l1.18-.5,10-24.27,8.62-14.21ZM130.38,230.54h-58.73c-8.5,0-16.26,11.77-16.14,19.85.12,7.76,8,19.08,16.14,19.08h58.73c-2.63-12.86-1.46-26,0-38.92ZM71.65,323.36h78.93l-10.37-19.19-6.75-19.3-1.18-.48c-18.89,1.32-39.77-1.59-58.41.02-24.31,2.1-23.22,35.97-2.22,38.95Z"/>
      <path class="cls-1" d="M263.58,201.32c11.63,1.21,22.98,13.65,23.82,25.2.46,6.3-2.2,11.08-9.22,9.97-5.91-.94-4.93-6.25-6.17-10.3-3.39-11.14-17.22-14.32-26.37-7.95-10.9,7.58-5.86,22.72,6.36,24.98,9.43,1.75,15.23.13,23.9,6.78,20.49,15.72,12.07,45.87-12.27,50.97,1.34,6.69-4.69,13.5-11.24,9.97-5.32-2.87-3.18-9.17-3.87-9.97-.15-.17-3.32-.74-4.41-1.2-9.73-4.15-18.55-12.82-19.45-23.95-.57-7.02,3.9-13.29,10.99-9.49,5.62,3.01,2.46,10.63,8.44,16.25,12.88,12.09,37.12-2.4,25.45-17.97-5.94-7.92-16.18-5.17-24.34-7.84-29.22-9.54-26.17-50,3.37-55.45-2.12-15.69,17.14-15.7,15.02,0Z"/>
      <path class="cls-1" d="M292.51,163.33c5.05-1.15,10.9,2.89,15.12,5.51,39.78,24.76,55.81,74.38,38.98,118.23-2.4,6.24-6.27,18.11-15.27,13-6.7-3.8-1.83-10.43-.11-14.91,13.97-36.28,6.48-74.97-25.1-99.1-3.81-2.91-16.27-9.18-17.8-12.13-1.98-3.83-.22-9.6,4.17-10.6Z"/>
      <path class="cls-1" d="M174.3,202.26c5.08-1.17,9.77,1.53,10,6.96.11,2.55-5.94,14.75-7.16,19.07-9.28,32.8,1.78,67.95,28.86,88.64,4.81,3.67,18.42,9.4,18.69,15.04.41,8.71-7.33,8.76-13.54,6.01-45.33-20.09-66.76-87.47-41.99-130.4,1.22-2.11,2.59-4.74,5.15-5.33Z"/>
      <path class="cls-1" d="M265.59,154.36c12.36-2.51,12.73,16.46.63,14.77-8.25-1.15-8.54-13.16-.63-14.77Z"/>
      <path class="cls-1" d="M242.38,333.99c10.9-2.48,13.52,12.74,4.15,14.64-10.85,2.2-12.72-12.7-4.15-14.64Z"/>
    </g>
  </g>
</svg>