<?xml version="1.0" encoding="UTF-8"?>
<svg id="Capa_2" data-name="Capa 2" xmlns="http://www.w3.org/2000/svg" viewBox="0 0 199 39.26">
  <defs>
    <style>
      .cls-1 {
        fill: #fff;
      }
    </style>
  </defs>
  <g id="Web">
    <g>
      <g id="uuid-1ab9a9e0-cde7-416d-89fd-f39e22177bcc">
        <path class="cls-1" d="M14.83,31.24l-5.82-11.52h-.87v11.52H0V0h12.84C15.19,0,17.19.44,18.82,1.31c1.63.87,2.87,2.07,3.7,3.59.83,1.52,1.25,3.23,1.25,5.12,0,2.13-.55,4-1.64,5.61-1.09,1.61-2.69,2.75-4.8,3.43l6.61,12.19h-9.1ZM8.14,13.78h4.03c1.11,0,1.94-.28,2.49-.84.55-.56.83-1.37.83-2.44,0-1-.28-1.79-.85-2.37-.57-.58-1.39-.86-2.47-.86h-4.03v6.51h0Z"/>
        <path class="cls-1" d="M45.99,26.14h-10.39l-1.58,5.1h-8.56L36.14,0h9.39l10.64,31.24h-8.6l-1.58-5.1h0ZM43.95,19.5l-3.16-10.1-3.12,10.1h6.27Z"/>
        <path class="cls-1" d="M79.56,15.58c-.82,1.55-2.05,2.79-3.7,3.72-1.65.93-3.66,1.4-6.04,1.4h-4.03v10.55h-8.14V0h12.17C72.17,0,74.17.44,75.82,1.33c1.65.89,2.89,2.11,3.72,3.68.83,1.57,1.25,3.37,1.25,5.41,0,1.89-.41,3.61-1.23,5.16h0ZM72.47,10.41c0-2.27-1.15-3.41-3.45-3.41h-3.24v6.78h3.24c2.3,0,3.45-1.12,3.45-3.37h0Z"/>
        <path class="cls-1" d="M91.02,0v31.24h-8.14V0h8.14Z"/>
        <path class="cls-1" d="M118.91,7.49c-.48-.9-1.03-1.73-1.66-2.47-1.02-1.21-2.25-2.23-3.68-3.04-2.31-1.31-5.01-1.97-8.08-1.97h-11.59v31.24h11.59c3.04,0,5.72-.67,8.04-2.02,1.44-.83,2.68-1.88,3.72-3.11.62-.74,1.17-1.56,1.64-2.44,1.26-2.36,1.89-5.05,1.89-8.07s-.63-5.74-1.87-8.11h0ZM110.48,21.49c-1.36,1.39-3.23,2.08-5.61,2.08h-2.82V7.53h2.82c2.39,0,4.26.7,5.61,2.1,1.36,1.4,2.04,3.39,2.04,5.96s-.68,4.51-2.04,5.9h0Z"/>
        <path class="cls-1" d="M121.8,0v5.01c.63.75,1.19,1.57,1.66,2.48,1.25,2.36,1.87,5.07,1.87,8.11s-.63,5.7-1.89,8.06c-.47.89-1.02,1.7-1.64,2.45v5.13h77.2V0h-77.2,0ZM154.39,27.85h-6.35v-13.44l-4.31,13.44h-5.31l-4.34-13.55v13.55h-6.35V3.48h7.68l5.74,15.83,5.61-15.83h7.65v24.37h0ZM172.63,8.91h-8.26v3.97h7.29v5.15h-7.29v4.39h8.26v5.43h-14.61V3.48h14.61v5.43ZM190.06,27.85l-4.44-6.88-3.79,6.88h-7.23l7.42-12.48-7.68-11.89h7.48l4.31,6.7,3.69-6.7h7.23l-7.32,12.27,7.81,12.1h-7.48Z"/>
      </g>
      <g>
        <path class="cls-1" d="M122.38,37.01h1.64v.5h-2.25v-4.69h.61v4.19Z"/>
        <path class="cls-1" d="M124.67,34.66c.15-.28.36-.51.63-.66s.56-.24.89-.24.6.07.84.21c.24.14.41.31.53.52v-.67h.62v3.69h-.62v-.69c-.12.21-.3.39-.54.53s-.52.21-.84.21-.62-.08-.89-.24c-.26-.16-.47-.39-.63-.68-.15-.29-.23-.62-.23-1s.08-.71.23-.99h0ZM127.4,34.93c-.11-.21-.26-.36-.45-.47-.19-.11-.4-.16-.63-.16s-.44.05-.63.16-.34.26-.45.47-.17.45-.17.73.06.53.17.74.26.37.45.48c.19.11.4.16.63.16s.44-.05.63-.16.34-.27.45-.48.17-.45.17-.73-.06-.52-.17-.73h0Z"/>
        <path class="cls-1" d="M132.17,33.98c.24-.14.52-.21.84-.21s.62.08.89.24c.27.16.48.38.63.66.15.28.23.62.23.99s-.08.7-.23,1c-.15.29-.36.52-.63.68s-.56.24-.89.24-.59-.07-.83-.21-.42-.32-.55-.53v2.43h-.61v-5.43h.61v.68c.12-.21.3-.39.54-.53h0ZM133.96,34.93c-.11-.21-.26-.36-.45-.47-.19-.11-.4-.16-.63-.16s-.43.05-.62.16c-.19.11-.34.27-.46.48s-.17.45-.17.72.06.52.17.73.27.37.46.48c.19.11.4.16.62.16s.44-.05.63-.16.34-.27.45-.48.17-.45.17-.74-.06-.52-.17-.73h0Z"/>
        <path class="cls-1" d="M135.56,34.66c.15-.28.36-.51.63-.66s.56-.24.89-.24.6.07.84.21c.24.14.41.31.53.52v-.67h.62v3.69h-.62v-.69c-.12.21-.3.39-.54.53s-.52.21-.84.21-.62-.08-.89-.24c-.26-.16-.47-.39-.63-.68-.15-.29-.23-.62-.23-1s.08-.71.23-.99h0ZM138.28,34.93c-.11-.21-.26-.36-.45-.47-.19-.11-.4-.16-.63-.16s-.44.05-.63.16-.34.26-.45.47-.17.45-.17.73.06.53.17.74.26.37.45.48c.19.11.4.16.63.16s.44-.05.63-.16.34-.27.45-.48.17-.45.17-.73-.06-.52-.17-.73h0Z"/>
        <path class="cls-1" d="M140.11,34.66c.15-.28.36-.51.63-.66s.57-.24.9-.24.6.07.84.21.42.31.53.52v-.67h.62v5.43h-.62v-2.43c-.12.21-.3.38-.54.52s-.52.21-.85.21-.62-.08-.88-.24c-.26-.16-.47-.39-.63-.68-.15-.29-.23-.62-.23-1s.08-.71.23-.99h0ZM142.83,34.93c-.11-.21-.26-.36-.45-.47-.19-.11-.4-.16-.63-.16s-.44.05-.63.16-.34.26-.45.47-.17.45-.17.73.06.53.17.74.26.37.45.48c.19.11.4.16.63.16s.44-.05.63-.16.34-.27.45-.48.17-.45.17-.73-.06-.52-.17-.73h0Z"/>
        <path class="cls-1" d="M147.92,33.83v3.69h-.61v-.54c-.12.19-.28.33-.49.44-.21.1-.44.16-.69.16-.29,0-.54-.06-.77-.18s-.41-.3-.54-.53c-.13-.24-.2-.53-.2-.87v-2.16h.61v2.08c0,.36.09.64.28.84s.43.29.75.29.59-.1.77-.3.28-.5.28-.88v-2.02h.61,0Z"/>
        <path class="cls-1" d="M152.3,35.9h-2.95c.02.36.15.65.37.85.23.2.5.31.82.31.26,0,.49-.06.66-.18s.3-.29.37-.49h.66c-.1.35-.3.64-.59.86-.3.22-.66.33-1.1.33-.35,0-.66-.08-.94-.24-.28-.16-.49-.38-.65-.67-.16-.29-.24-.62-.24-1.01s.08-.72.23-1,.37-.51.64-.66c.28-.15.59-.23.95-.23s.66.08.93.23c.27.15.48.36.62.63.15.27.22.57.22.9,0,.12,0,.24-.02.37h0ZM151.53,34.8c-.1-.17-.24-.3-.42-.38-.18-.09-.37-.13-.59-.13-.31,0-.57.1-.79.3s-.34.47-.37.82h2.33c0-.23-.05-.43-.15-.6h0Z"/>
        <path class="cls-1" d="M153.87,34.33v2.17c0,.18.04.31.11.38s.21.11.4.11h.45v.52h-.55c-.34,0-.6-.08-.77-.24-.17-.16-.26-.41-.26-.77v-2.17h-.48v-.5h.48v-.93h.61v.93h.96v.5h-.96,0Z"/>
        <path class="cls-1" d="M158.91,35.9h-2.95c.02.36.15.65.37.85.23.2.5.31.82.31.26,0,.49-.06.66-.18s.3-.29.37-.49h.66c-.1.35-.3.64-.59.86-.3.22-.66.33-1.1.33-.35,0-.66-.08-.94-.24-.28-.16-.49-.38-.65-.67-.16-.29-.24-.62-.24-1.01s.08-.72.23-1,.37-.51.64-.66c.28-.15.59-.23.95-.23s.66.08.93.23c.27.15.48.36.62.63.15.27.22.57.22.9,0,.12,0,.24-.02.37h0ZM158.15,34.8c-.1-.17-.24-.3-.42-.38-.18-.09-.37-.13-.59-.13-.31,0-.57.1-.79.3s-.34.47-.37.82h2.33c0-.23-.05-.43-.15-.6h0Z"/>
        <path class="cls-1" d="M160.81,33.93c.2-.12.44-.17.73-.17v.63h-.16c-.69,0-1.03.37-1.03,1.12v2h-.61v-3.69h.61v.6c.11-.21.26-.37.46-.49h0Z"/>
        <path class="cls-1" d="M163.21,32.78l-1.43.77v-.46l1.43-.84v.53h0ZM162.86,33.83v3.69h-.61v-3.69h.61Z"/>
        <path class="cls-1" d="M163.9,34.66c.15-.28.36-.51.63-.66s.56-.24.89-.24.6.07.84.21c.24.14.41.31.53.52v-.67h.62v3.69h-.62v-.69c-.12.21-.3.39-.54.53s-.52.21-.84.21-.62-.08-.89-.24c-.26-.16-.47-.39-.63-.68-.15-.29-.23-.62-.23-1s.08-.71.23-.99h0ZM166.63,34.93c-.11-.21-.26-.36-.45-.47-.19-.11-.4-.16-.63-.16s-.44.05-.63.16-.34.26-.45.47-.17.45-.17.73.06.53.17.74.26.37.45.48c.19.11.4.16.63.16s.44-.05.63-.16.34-.27.45-.48.17-.45.17-.73-.06-.52-.17-.73h0Z"/>
        <path class="cls-1" d="M170.24,34.66c.15-.28.36-.51.63-.66s.56-.24.89-.24.6.07.84.21c.24.14.41.31.53.52v-.67h.62v3.69h-.62v-.69c-.12.21-.3.39-.54.53s-.52.21-.84.21-.62-.08-.89-.24c-.26-.16-.47-.39-.63-.68-.15-.29-.23-.62-.23-1s.08-.71.23-.99h0ZM172.97,34.93c-.11-.21-.26-.36-.45-.47-.19-.11-.4-.16-.63-.16s-.44.05-.63.16-.34.26-.45.47-.17.45-.17.73.06.53.17.74.26.37.45.48c.19.11.4.16.63.16s.44-.05.63-.16.34-.27.45-.48.17-.45.17-.73-.06-.52-.17-.73h0Z"/>
        <path class="cls-1" d="M181.34,32.86v4.65h-.61v-3.47l-1.55,3.47h-.43l-1.55-3.48v3.48h-.61v-4.65h.66l1.72,3.85,1.72-3.85h.65,0Z"/>
        <path class="cls-1" d="M185.72,35.9h-2.95c.02.36.15.65.37.85.23.2.5.31.82.31.26,0,.49-.06.66-.18s.3-.29.37-.49h.66c-.1.35-.3.64-.59.86-.3.22-.66.33-1.1.33-.35,0-.66-.08-.94-.24-.28-.16-.49-.38-.65-.67-.16-.29-.24-.62-.24-1.01s.08-.72.23-1,.37-.51.64-.66c.28-.15.59-.23.95-.23s.66.08.93.23c.27.15.48.36.62.63.15.27.22.57.22.9,0,.12,0,.24-.02.37h0ZM184.95,34.8c-.1-.17-.24-.3-.42-.38-.18-.09-.37-.13-.59-.13-.31,0-.57.1-.79.3s-.34.47-.37.82h2.33c0-.23-.05-.43-.15-.6h0ZM184.6,32.78l-1.43.77v-.46l1.43-.84v.53h0Z"/>
        <path class="cls-1" d="M188.47,37.51l-.87-1.37-.84,1.37h-.64l1.19-1.83-1.19-1.86h.69l.87,1.36.83-1.36h.64l-1.18,1.82,1.19,1.86h-.69Z"/>
        <path class="cls-1" d="M189.79,33.11c-.08-.08-.12-.18-.12-.3s.04-.21.12-.3c.08-.08.18-.12.3-.12s.21.04.29.12.12.18.12.3-.04.21-.12.3-.17.12-.29.12-.21-.04-.3-.12ZM190.38,33.83v3.69h-.61v-3.69h.61Z"/>
        <path class="cls-1" d="M191.42,34.66c.15-.28.36-.51.64-.66s.58-.24.93-.24c.45,0,.83.11,1.12.33.29.22.49.52.58.91h-.66c-.06-.22-.18-.4-.37-.53-.18-.13-.41-.19-.68-.19-.35,0-.63.12-.85.36s-.32.58-.32,1.02.11.79.32,1.03c.21.24.5.36.85.36.27,0,.49-.06.67-.19.18-.13.3-.3.37-.54h.66c-.1.38-.3.68-.59.9-.3.23-.67.34-1.11.34-.35,0-.66-.08-.93-.24-.27-.16-.48-.38-.64-.67-.15-.29-.23-.62-.23-1.01s.08-.71.23-1h0Z"/>
        <path class="cls-1" d="M196.17,37.34c-.28-.16-.5-.38-.66-.67-.16-.29-.24-.62-.24-1.01s.08-.71.25-1c.16-.29.39-.51.67-.67.28-.15.6-.23.95-.23s.67.08.95.23c.28.15.51.38.67.66.16.29.25.62.25,1s-.08.72-.25,1.01c-.17.29-.4.51-.68.67s-.61.24-.96.24-.66-.08-.94-.24h0ZM197.73,36.88c.19-.1.35-.26.47-.46.12-.21.18-.46.18-.75s-.06-.55-.17-.75c-.12-.21-.27-.36-.46-.46-.19-.1-.39-.15-.61-.15s-.43.05-.62.15-.34.25-.45.46-.17.46-.17.75.05.55.16.76.26.36.44.46c.18.1.39.15.61.15s.43-.05.62-.15h0Z"/>
      </g>
    </g>
  </g>
</svg>