<?xml version="1.0" encoding="UTF-8"?>
<svg id="Capa_2" data-name="Capa 2" xmlns="http://www.w3.org/2000/svg" viewBox="0 0 42.2 26.85">
  <defs>
    <style>
      .cls-1 {
        fill: #fff;
      }
    </style>
  </defs>
  <g id="Web">
    <g>
      <path class="cls-1" d="M24.78,15.31H1.45s-.54-.23-.61-.28c-1.11-.72-1.11-2.48,0-3.21.08-.05.58-.28.61-.28h23.33L16.42,3.13c-1.35-1.83.79-4.04,2.65-2.74l11.87,11.86c.54.67.54,1.67,0,2.34l-11.92,11.9c-1.93,1.21-3.95-1.01-2.56-2.83l8.32-8.36Z"/>
      <path class="cls-1" d="M28.26.05c.6-.12,1.27-.02,1.73.38l11.73,11.73c.63.83.63,1.7,0,2.52l-11.73,11.73c-1.74,1.34-3.97-.65-2.86-2.5l10.41-10.52L27.17,2.99c-.77-.99-.09-2.7,1.09-2.94Z"/>
    </g>
  </g>
</svg>